SplineFontDB: 3.2
FontName: Hylian
FullName: Hylian
FamilyName: Hylian
Weight: Book
Copyright: 2016 Kasuto of Kataan, created by Kharon.
FontLog: "properly mapped some modified vowels to include lowercase variants+AAoACgAA-simplified access to stressed au digraph on # symbol"
Version: 3.0
ItalicAngle: 0
UnderlinePosition: 0
UnderlineWidth: 0
Ascent: 1638
Descent: 410
InvalidEm: 0
sfntRevision: 0x00030000
LayerCount: 2
Layer: 0 1 "Back" 1
Layer: 1 1 "Fore" 0
XUID: [1021 309 -23361534 3556]
StyleMap: 0x0000
FSType: 0
OS2Version: 4
OS2_WeightWidthSlopeOnly: 0
OS2_UseTypoMetrics: 1
CreationTime: 1454883560
ModificationTime: 1689094951
PfmFamily: 17
TTFWeight: 400
TTFWidth: 5
LineGap: 184
VLineGap: 0
Panose: 2 0 5 3 0 0 0 0 0 0
OS2TypoAscent: 1638
OS2TypoAOffset: 0
OS2TypoDescent: -410
OS2TypoDOffset: 0
OS2TypoLinegap: 184
OS2WinAscent: 2912
OS2WinAOffset: 0
OS2WinDescent: 808
OS2WinDOffset: 0
HheadAscent: 2912
HheadAOffset: 0
HheadDescent: -808
HheadDOffset: 0
OS2SubXSize: 1331
OS2SubYSize: 1433
OS2SubXOff: 0
OS2SubYOff: 286
OS2SupXSize: 1331
OS2SupYSize: 1433
OS2SupXOff: 0
OS2SupYOff: 983
OS2StrikeYSize: 102
OS2StrikeYPos: 530
OS2CapHeight: 2253
OS2XHeight: 2253
OS2Vendor: 'PfEd'
OS2CodePages: 00000001.00000000
OS2UnicodeRanges: 80000007.00000000.00000000.00000000
MarkAttachClasses: 1
DEI: 91125
ShortTable: cvt  2
  68
  1297
EndShort
ShortTable: maxp 16
  1
  0
  125
  55
  5
  0
  0
  2
  0
  1
  1
  0
  64
  46
  0
  0
EndShort
LangName: 1033 "" "" "" "FontForge : Hylian : 19-2-2016"
GaspTable: 1 65535 2 0
Encoding: UnicodeBmp
UnicodeInterp: none
NameList: AGL For New Fonts
DisplaySize: -48
AntiAlias: 1
FitToEm: 1
WinInfo: 48 16 14
BeginChars: 65539 137

StartChar: .notdef
Encoding: 65536 -1 0
Width: 748
GlyphClass: 1
Flags: W
LayerCount: 2
Fore
SplineSet
68 0 m 1,0,-1
 68 1365 l 1,1,-1
 612 1365 l 1,2,-1
 612 0 l 1,3,-1
 68 0 l 1,0,-1
136 68 m 1,4,-1
 544 68 l 1,5,-1
 544 1297 l 1,6,-1
 136 1297 l 1,7,-1
 136 68 l 1,4,-1
EndSplineSet
Validated: 1
EndChar

StartChar: exclam
Encoding: 33 33 3
Width: 1196
GlyphClass: 1
Flags: W
LayerCount: 2
Fore
SplineSet
369 0 m 0,0,1
 216 0 216 0 108 108 c 128,-1,2
 0 216 0 216 0 369 c 0,3,4
 0 521 0 521 108 629 c 128,-1,5
 216 737 216 737 369 737 c 0,6,7
 521 737 521 737 629 629 c 128,-1,8
 737 521 737 521 737 369 c 0,9,10
 737 216 737 216 629 108 c 128,-1,11
 521 0 521 0 369 0 c 0,0,1
369 1515 m 0,12,13
 216 1515 216 1515 108 1623 c 128,-1,14
 0 1731 0 1731 0 1884 c 0,15,16
 0 2036 0 2036 108 2144.5 c 128,-1,17
 216 2253 216 2253 369 2253 c 0,18,19
 521 2253 521 2253 629 2144.5 c 128,-1,20
 737 2036 737 2036 737 1884 c 0,21,22
 737 1731 737 1731 629 1623 c 128,-1,23
 521 1515 521 1515 369 1515 c 0,12,13
369 1625 m 0,24,25
 476 1625 476 1625 552 1700.5 c 128,-1,26
 628 1776 628 1776 628 1884 c 0,27,28
 628 1991 628 1991 552 2067 c 128,-1,29
 476 2143 476 2143 369 2143 c 0,30,31
 261 2143 261 2143 185 2067 c 128,-1,32
 109 1991 109 1991 109 1884 c 0,33,34
 109 1776 109 1776 185 1700.5 c 128,-1,35
 261 1625 261 1625 369 1625 c 0,24,25
369 109 m 0,36,37
 476 109 476 109 552 185 c 128,-1,38
 628 261 628 261 628 369 c 0,39,40
 628 476 628 476 552 552 c 128,-1,41
 476 628 476 628 369 628 c 0,42,43
 261 628 261 628 185 552 c 128,-1,44
 109 476 109 476 109 369 c 0,45,46
 109 261 109 261 185 185 c 128,-1,47
 261 109 261 109 369 109 c 0,36,37
EndSplineSet
Validated: 1
EndChar

StartChar: quotedbl
Encoding: 34 34 4
Width: 2199
GlyphClass: 1
Flags: W
LayerCount: 2
Fore
SplineSet
870 2373 m 256,0,1
 765 2373 765 2373 690 2448 c 0,2,3
 616 2524 616 2524 616 2628 c 128,-1,4
 616 2732 616 2732 690 2808 c 0,5,6
 766 2882 766 2882 870 2882 c 128,-1,7
 974 2882 974 2882 1050 2808 c 0,8,9
 1125 2733 1125 2733 1125 2628 c 256,10,11
 1125 2523 1125 2523 1050 2448 c 128,-1,12
 975 2373 975 2373 870 2373 c 256,0,1
870 872 m 256,13,14
 766 872 766 872 690 946 c 0,15,16
 616 1022 616 1022 616 1126 c 128,-1,17
 616 1230 616 1230 690 1306 c 0,18,19
 765 1381 765 1381 870 1381 c 256,20,21
 975 1381 975 1381 1050 1306 c 128,-1,22
 1125 1231 1125 1231 1125 1126 c 256,23,24
 1125 1021 1125 1021 1050 946 c 0,25,26
 974 872 974 872 870 872 c 256,13,14
1392 0 m 1,27,-1
 349 0 l 1,28,-1
 0 0 l 1,29,-1
 0 349 l 1,30,-1
 0 2253 l 1,31,-1
 349 2253 l 1,32,-1
 349 349 l 1,33,-1
 1392 349 l 1,34,-1
 1392 2253 l 1,35,-1
 1741 2253 l 1,36,-1
 1741 349 l 1,37,-1
 1741 0 l 1,38,-1
 1392 0 l 1,27,-1
EndSplineSet
Validated: 1
EndChar

StartChar: dollar
Encoding: 36 36 5
Width: 4375
GlyphClass: 1
Flags: W
LayerCount: 2
Fore
SplineSet
3000 -210 m 1,0,-1
 3349 -210 l 1,1,-1
 3349 -779 l 1,2,-1
 3000 -779 l 1,3,-1
 3000 -778 l 1,4,-1
 966 -778 l 1,5,-1
 966 -779 l 1,6,-1
 617 -779 l 1,7,-1
 617 -210 l 1,8,-1
 966 -210 l 1,9,-1
 966 -430 l 1,10,-1
 3000 -430 l 1,11,-1
 3000 -210 l 1,0,-1
3577 2282 m 1,12,-1
 3926 2282 l 1,13,-1
 3926 1933 l 1,14,-1
 3926 29 l 1,15,-1
 3577 29 l 1,16,-1
 3577 1933 l 1,17,-1
 2533 1933 l 1,18,-1
 2533 29 l 1,19,-1
 2185 29 l 1,20,-1
 2185 1933 l 1,21,-1
 2185 2282 l 1,22,-1
 2533 2282 l 1,23,-1
 3577 2282 l 1,12,-1
1789 2282 m 1,24,-1
 1789 1933 l 1,25,-1
 1789 378 l 1,26,-1
 1789 29 l 1,27,-1
 1441 29 l 1,28,-1
 398 29 l 1,29,-1
 49 29 l 1,30,-1
 49 378 l 1,31,-1
 49 1933 l 1,32,-1
 49 2282 l 1,33,-1
 398 2282 l 1,34,-1
 1441 2282 l 1,35,-1
 1789 2282 l 1,24,-1
398 378 m 1,36,-1
 1441 378 l 1,37,-1
 1441 1933 l 1,38,-1
 398 1933 l 1,39,-1
 398 378 l 1,36,-1
EndSplineSet
Validated: 1
EndChar

StartChar: percent
Encoding: 37 37 6
Width: 4392
GlyphClass: 1
Flags: W
LayerCount: 2
Fore
SplineSet
2968 -239 m 1,0,-1
 3317 -239 l 1,1,-1
 3317 -808 l 1,2,-1
 2968 -808 l 1,3,-1
 2968 -807 l 1,4,-1
 934 -807 l 1,5,-1
 934 -808 l 1,6,-1
 585 -808 l 1,7,-1
 585 -239 l 1,8,-1
 934 -239 l 1,9,-1
 934 -459 l 1,10,-1
 2968 -459 l 1,11,-1
 2968 -239 l 1,0,-1
1409 2253 m 1,12,-1
 1757 2253 l 1,13,-1
 1757 1904 l 1,14,-1
 1757 0 l 1,15,-1
 1409 0 l 1,16,-1
 1409 1904 l 1,17,-1
 366 1904 l 1,18,-1
 366 0 l 1,19,-1
 17 0 l 1,20,-1
 17 1904 l 1,21,-1
 17 2253 l 1,22,-1
 366 2253 l 1,23,-1
 1409 2253 l 1,12,-1
3536 0 m 1,24,-1
 2492 0 l 1,25,-1
 2144 0 l 1,26,-1
 2144 349 l 1,27,-1
 2144 2253 l 1,28,-1
 2492 2253 l 1,29,-1
 2492 349 l 1,30,-1
 3536 349 l 1,31,-1
 3536 2253 l 1,32,-1
 3884 2253 l 1,33,-1
 3884 349 l 1,34,-1
 3884 0 l 1,35,-1
 3536 0 l 1,24,-1
EndSplineSet
Validated: 1
EndChar

StartChar: ampersand
Encoding: 38 38 7
Width: 2199
GlyphClass: 1
Flags: W
LayerCount: 2
Fore
SplineSet
1392 2253 m 1,0,-1
 1741 2253 l 1,1,-1
 1741 1904 l 1,2,-1
 1741 0 l 1,3,-1
 1392 0 l 1,4,-1
 1392 1904 l 1,5,-1
 349 1904 l 1,6,-1
 349 0 l 1,7,-1
 0 0 l 1,8,-1
 0 1904 l 1,9,-1
 0 2253 l 1,10,-1
 349 2253 l 1,11,-1
 1392 2253 l 1,0,-1
870 2373 m 256,12,13
 765 2373 765 2373 690 2448 c 0,14,15
 616 2524 616 2524 616 2628 c 128,-1,16
 616 2732 616 2732 690 2808 c 0,17,18
 766 2882 766 2882 870 2882 c 128,-1,19
 974 2882 974 2882 1050 2808 c 0,20,21
 1125 2733 1125 2733 1125 2628 c 256,22,23
 1125 2523 1125 2523 1050 2448 c 128,-1,24
 975 2373 975 2373 870 2373 c 256,12,13
EndSplineSet
Validated: 1
EndChar

StartChar: quotesingle
Encoding: 39 39 8
Width: 1198
GlyphClass: 1
Flags: W
LayerCount: 2
Fore
SplineSet
369 1515 m 0,0,1
 216 1515 216 1515 108 1623 c 128,-1,2
 0 1731 0 1731 0 1884 c 0,3,4
 0 2036 0 2036 108 2144.5 c 128,-1,5
 216 2253 216 2253 369 2253 c 0,6,7
 521 2253 521 2253 629 2144.5 c 128,-1,8
 737 2036 737 2036 737 1884 c 0,9,10
 737 1731 737 1731 629 1623 c 128,-1,11
 521 1515 521 1515 369 1515 c 0,0,1
369 1625 m 0,12,13
 476 1625 476 1625 552 1700.5 c 128,-1,14
 628 1776 628 1776 628 1884 c 0,15,16
 628 1991 628 1991 552 2067 c 128,-1,17
 476 2143 476 2143 369 2143 c 0,18,19
 261 2143 261 2143 185 2067 c 128,-1,20
 109 1991 109 1991 109 1884 c 0,21,22
 109 1776 109 1776 185 1700.5 c 128,-1,23
 261 1625 261 1625 369 1625 c 0,12,13
EndSplineSet
Validated: 1
EndChar

StartChar: parenleft
Encoding: 40 40 9
Width: 2199
GlyphClass: 1
Flags: W
LayerCount: 2
Fore
SplineSet
870 2373 m 256,0,1
 765 2373 765 2373 690 2448 c 0,2,3
 616 2524 616 2524 616 2628 c 128,-1,4
 616 2732 616 2732 690 2808 c 0,5,6
 766 2882 766 2882 870 2882 c 128,-1,7
 974 2882 974 2882 1050 2808 c 0,8,9
 1125 2733 1125 2733 1125 2628 c 256,10,11
 1125 2523 1125 2523 1050 2448 c 128,-1,12
 975 2373 975 2373 870 2373 c 256,0,1
1741 2253 m 1,13,-1
 1741 1904 l 1,14,-1
 1741 349 l 1,15,-1
 1741 0 l 1,16,-1
 1392 0 l 1,17,-1
 0 0 l 1,18,-1
 0 349 l 1,19,-1
 1392 349 l 1,20,-1
 1392 1904 l 1,21,-1
 0 1904 l 1,22,-1
 0 2253 l 1,23,-1
 1392 2253 l 1,24,-1
 1741 2253 l 1,13,-1
EndSplineSet
Validated: 1
EndChar

StartChar: parenright
Encoding: 41 41 10
Width: 2199
GlyphClass: 1
Flags: W
LayerCount: 2
Fore
SplineSet
870 2373 m 256,0,1
 765 2373 765 2373 690 2448 c 0,2,3
 616 2524 616 2524 616 2628 c 128,-1,4
 616 2732 616 2732 690 2808 c 0,5,6
 766 2882 766 2882 870 2882 c 128,-1,7
 974 2882 974 2882 1050 2808 c 0,8,9
 1125 2733 1125 2733 1125 2628 c 256,10,11
 1125 2523 1125 2523 1050 2448 c 128,-1,12
 975 2373 975 2373 870 2373 c 256,0,1
1741 2253 m 1,13,-1
 1741 1904 l 1,14,-1
 1741 349 l 1,15,-1
 1741 0 l 1,16,-1
 1392 0 l 1,17,-1
 0 0 l 1,18,-1
 0 349 l 1,19,-1
 1392 349 l 1,20,-1
 1392 1904 l 1,21,-1
 0 1904 l 1,22,-1
 0 2253 l 1,23,-1
 1392 2253 l 1,24,-1
 1741 2253 l 1,13,-1
870 872 m 256,25,26
 766 872 766 872 690 946 c 0,27,28
 616 1022 616 1022 616 1126 c 128,-1,29
 616 1230 616 1230 690 1306 c 0,30,31
 765 1381 765 1381 870 1381 c 256,32,33
 975 1381 975 1381 1050 1306 c 128,-1,34
 1125 1231 1125 1231 1125 1126 c 256,35,36
 1125 1021 1125 1021 1050 946 c 0,37,38
 974 872 974 872 870 872 c 256,25,26
EndSplineSet
Validated: 1
EndChar

StartChar: asterisk
Encoding: 42 42 11
Width: 1998
GlyphClass: 1
Flags: W
LayerCount: 2
Fore
SplineSet
976 659 m 1,0,-1
 976 0 l 1,1,-1
 765 0 l 1,2,-1
 765 659 l 1,3,-1
 577 382 l 1,4,-1
 318 0 l 1,5,-1
 27 0 l 1,6,-1
 449 616 l 1,7,-1
 870 1232 l 1,8,-1
 1292 616 l 1,9,-1
 1714 0 l 1,10,-1
 1423 0 l 1,11,-1
 1164 382 l 1,12,-1
 976 659 l 1,0,-1
EndSplineSet
Validated: 1
EndChar

StartChar: plus
Encoding: 43 43 12
Width: 1998
GlyphClass: 1
Flags: W
LayerCount: 2
Fore
SplineSet
870 1232 m 1,0,-1
 1292 616 l 1,1,-1
 1714 0 l 1,2,-1
 1423 0 l 1,3,-1
 1164 382 l 1,4,-1
 870 815 l 1,5,-1
 577 382 l 1,6,-1
 318 0 l 1,7,-1
 27 0 l 1,8,-1
 449 616 l 1,9,-1
 870 1232 l 1,0,-1
EndSplineSet
Validated: 1
EndChar

StartChar: comma
Encoding: 44 44 13
Width: 1200
GlyphClass: 1
Flags: W
LayerCount: 2
Fore
SplineSet
369 0 m 0,0,1
 216 0 216 0 108 108 c 128,-1,2
 0 216 0 216 0 369 c 0,3,4
 0 521 0 521 108 629 c 128,-1,5
 216 737 216 737 369 737 c 0,6,7
 521 737 521 737 629 629 c 128,-1,8
 737 521 737 521 737 369 c 0,9,10
 737 216 737 216 629 108 c 128,-1,11
 521 0 521 0 369 0 c 0,0,1
EndSplineSet
Validated: 1
EndChar

StartChar: hyphen
Encoding: 45 45 14
Width: 1991
GlyphClass: 1
Flags: W
LayerCount: 2
Fore
SplineSet
870 0 m 1,0,-1
 449 616 l 1,1,-1
 27 1232 l 1,2,-1
 318 1232 l 1,3,-1
 577 850 l 1,4,-1
 870 417 l 1,5,-1
 1164 850 l 1,6,-1
 1423 1232 l 1,7,-1
 1714 1232 l 1,8,-1
 1292 616 l 1,9,-1
 870 0 l 1,0,-1
EndSplineSet
Validated: 1
EndChar

StartChar: period
Encoding: 46 46 15
Width: 1200
GlyphClass: 1
Flags: W
LayerCount: 2
Fore
SplineSet
367 5 m 0,0,1
 214 5 214 5 106 113 c 128,-1,2
 -2 221 -2 221 -2 374 c 0,3,4
 -2 526 -2 526 106 634 c 128,-1,5
 214 742 214 742 367 742 c 0,6,7
 519 742 519 742 627 634 c 128,-1,8
 735 526 735 526 735 374 c 0,9,10
 735 221 735 221 627 113 c 128,-1,11
 519 5 519 5 367 5 c 0,0,1
370 113 m 0,12,13
 477 113 477 113 553 189 c 128,-1,14
 629 265 629 265 629 373 c 0,15,16
 629 480 629 480 553 556 c 128,-1,17
 477 632 477 632 370 632 c 0,18,19
 262 632 262 632 186 556 c 128,-1,20
 110 480 110 480 110 373 c 0,21,22
 110 265 110 265 186 189 c 128,-1,23
 262 113 262 113 370 113 c 0,12,13
EndSplineSet
Validated: 1
EndChar

StartChar: slash
Encoding: 47 47 16
Width: 1998
GlyphClass: 1
Flags: W
LayerCount: 2
Fore
SplineSet
976 573 m 1,0,-1
 1164 850 l 1,1,-1
 1423 1232 l 1,2,-1
 1714 1232 l 1,3,-1
 1292 616 l 1,4,-1
 870 0 l 1,5,-1
 449 616 l 1,6,-1
 27 1232 l 1,7,-1
 318 1232 l 1,8,-1
 577 850 l 1,9,-1
 765 573 l 1,10,-1
 765 1232 l 1,11,-1
 976 1232 l 1,12,-1
 976 573 l 1,0,-1
EndSplineSet
Validated: 1
EndChar

StartChar: zero
Encoding: 48 48 17
Width: 2195
GlyphClass: 1
Flags: W
LayerCount: 2
Fore
SplineSet
0 952 m 1,0,-1
 0 1300 l 1,1,-1
 0 1905 l 1,2,-1
 0 2253 l 1,3,-1
 348 2253 l 1,4,-1
 1393 2253 l 1,5,-1
 1741 2253 l 1,6,-1
 1741 1905 l 1,7,-1
 1741 1300 l 1,8,-1
 1741 952 l 1,9,-1
 1741 348 l 1,10,-1
 1741 0 l 1,11,-1
 1393 0 l 1,12,-1
 348 0 l 1,13,-1
 0 0 l 1,14,-1
 0 348 l 1,15,-1
 0 952 l 1,0,-1
348 1300 m 1,16,-1
 1393 1300 l 1,17,-1
 1393 1905 l 1,18,-1
 348 1905 l 1,19,-1
 348 1300 l 1,16,-1
1393 952 m 1,20,-1
 348 952 l 1,21,-1
 348 348 l 1,22,-1
 1393 348 l 1,23,-1
 1393 952 l 1,20,-1
EndSplineSet
Validated: 1
EndChar

StartChar: one
Encoding: 49 49 18
Width: 2195
GlyphClass: 1
Flags: W
LayerCount: 2
Fore
SplineSet
0 0 m 1,0,-1
 0 348 l 1,1,-1
 0 952 l 1,2,-1
 0 1300 l 1,3,-1
 0 2253 l 1,4,-1
 348 2253 l 1,5,-1
 348 1300 l 1,6,-1
 1393 1300 l 1,7,-1
 1393 2253 l 1,8,-1
 1741 2253 l 1,9,-1
 1741 1300 l 1,10,-1
 1741 952 l 1,11,-1
 1741 348 l 1,12,-1
 1741 0 l 1,13,-1
 1393 0 l 1,14,-1
 348 0 l 1,15,-1
 0 0 l 1,0,-1
348 348 m 1,16,-1
 1393 348 l 1,17,-1
 1393 952 l 1,18,-1
 348 952 l 1,19,-1
 348 348 l 1,16,-1
EndSplineSet
Validated: 1
EndChar

StartChar: two
Encoding: 50 50 19
Width: 2195
GlyphClass: 1
Flags: W
LayerCount: 2
Fore
SplineSet
0 152 m 1,0,1
 26 188 26 188 70 258 c 128,-1,2
 114 328 114 328 127 348 c 2,3,-1
 1126 1905 l 1,4,-1
 0 1905 l 1,5,-1
 0 2253 l 1,6,-1
 1741 2253 l 1,7,-1
 1741 0 l 1,8,-1
 0 0 l 1,9,-1
 0 152 l 1,0,1
496 348 m 1,10,-1
 1393 348 l 1,11,-1
 1393 1747 l 1,12,-1
 496 348 l 1,10,-1
EndSplineSet
Validated: 1
EndChar

StartChar: three
Encoding: 51 51 20
Width: 2197
GlyphClass: 1
Flags: W
LayerCount: 2
Fore
SplineSet
0 0 m 1,0,-1
 0 348 l 1,1,-1
 1391 348 l 1,2,-1
 1391 952 l 1,3,-1
 0 952 l 1,4,-1
 0 1300 l 1,5,-1
 1391 1300 l 1,6,-1
 1391 2253 l 1,7,-1
 1741 2253 l 1,8,-1
 1741 1300 l 1,9,-1
 1741 952 l 1,10,-1
 1741 348 l 1,11,-1
 1741 0 l 1,12,-1
 1391 0 l 1,13,-1
 0 0 l 1,0,-1
EndSplineSet
Validated: 1
EndChar

StartChar: four
Encoding: 52 52 21
Width: 2195
GlyphClass: 1
Flags: W
LayerCount: 2
Fore
SplineSet
0 1126 m 1,0,-1
 0 1300 l 1,1,-1
 1391 1300 l 1,2,-1
 1391 2253 l 1,3,-1
 1741 2253 l 1,4,-1
 1741 1300 l 1,5,-1
 1741 952 l 1,6,-1
 1741 0 l 1,7,-1
 1391 0 l 1,8,-1
 1391 952 l 1,9,-1
 348 952 l 1,10,-1
 348 0 l 1,11,-1
 0 0 l 1,12,-1
 0 952 l 1,13,-1
 0 1126 l 1,0,-1
EndSplineSet
Validated: 1
EndChar

StartChar: five
Encoding: 53 53 22
Width: 2195
GlyphClass: 1
Flags: W
LayerCount: 2
Fore
SplineSet
1741 0 m 1,0,-1
 348 0 l 1,1,-1
 0 0 l 1,2,-1
 0 348 l 1,3,-1
 0 952 l 1,4,-1
 0 1300 l 1,5,-1
 0 2253 l 1,6,-1
 348 2253 l 1,7,-1
 348 1300 l 1,8,-1
 1741 1300 l 1,9,-1
 1741 952 l 1,10,-1
 348 952 l 1,11,-1
 348 348 l 1,12,-1
 1741 348 l 1,13,-1
 1741 0 l 1,0,-1
EndSplineSet
Validated: 1
EndChar

StartChar: six
Encoding: 54 54 23
Width: 2197
GlyphClass: 1
Flags: W
LayerCount: 2
Fore
SplineSet
1614 348 m 2,0,1
 1632 321 1632 321 1674 254 c 128,-1,2
 1716 187 1716 187 1741 152 c 1,3,-1
 1741 0 l 1,4,-1
 0 0 l 1,5,-1
 0 2253 l 1,6,-1
 1741 2253 l 1,7,-1
 1741 1905 l 1,8,-1
 614 1905 l 1,9,-1
 1614 348 l 2,0,1
1245 348 m 1,10,-1
 348 1747 l 1,11,-1
 348 348 l 1,12,-1
 1245 348 l 1,10,-1
EndSplineSet
Validated: 1
EndChar

StartChar: seven
Encoding: 55 55 24
Width: 2197
GlyphClass: 1
Flags: W
LayerCount: 2
Fore
SplineSet
1741 2253 m 1,0,-1
 1741 1903 l 1,1,-1
 348 1903 l 1,2,-1
 348 0 l 1,3,-1
 0 0 l 1,4,-1
 0 1903 l 1,5,-1
 0 2253 l 1,6,-1
 348 2253 l 1,7,-1
 1741 2253 l 1,0,-1
EndSplineSet
Validated: 1
EndChar

StartChar: eight
Encoding: 56 56 25
Width: 2195
GlyphClass: 1
Flags: W
LayerCount: 2
Fore
SplineSet
0 2253 m 1,0,-1
 348 2253 l 1,1,-1
 1393 2253 l 1,2,-1
 1741 2253 l 1,3,-1
 1741 1903 l 1,4,-1
 1741 1300 l 1,5,-1
 1741 952 l 1,6,-1
 1741 0 l 1,7,-1
 1393 0 l 1,8,-1
 1393 952 l 1,9,-1
 348 952 l 1,10,-1
 348 0 l 1,11,-1
 0 0 l 1,12,-1
 0 952 l 1,13,-1
 0 1300 l 1,14,-1
 0 1903 l 1,15,-1
 0 2253 l 1,0,-1
348 1903 m 1,16,-1
 348 1300 l 1,17,-1
 1393 1300 l 1,18,-1
 1393 1903 l 1,19,-1
 348 1903 l 1,16,-1
EndSplineSet
Validated: 1
EndChar

StartChar: nine
Encoding: 57 57 26
Width: 2195
GlyphClass: 1
Flags: W
LayerCount: 2
Fore
SplineSet
1741 1126 m 1,0,-1
 1741 952 l 1,1,-1
 1741 0 l 1,2,-1
 1393 0 l 1,3,-1
 1393 952 l 1,4,-1
 1044 952 l 1,5,-1
 1044 0 l 1,6,-1
 696 0 l 1,7,-1
 696 952 l 1,8,-1
 348 952 l 1,9,-1
 348 0 l 1,10,-1
 0 0 l 1,11,-1
 0 952 l 1,12,-1
 0 1300 l 1,13,-1
 0 2253 l 1,14,-1
 348 2253 l 1,15,-1
 348 1300 l 1,16,-1
 1741 1300 l 1,17,-1
 1741 1126 l 1,0,-1
EndSplineSet
Validated: 1
EndChar

StartChar: semicolon
Encoding: 59 59 27
Width: 2195
GlyphClass: 1
Flags: W
LayerCount: 2
Fore
SplineSet
870 872 m 0,0,1
 764 872 764 872 690 946 c 128,-1,2
 616 1020 616 1020 616 1126 c 0,3,4
 616 1233 616 1233 690 1307 c 0,5,6
 763 1380 763 1380 870 1380 c 0,7,8
 978 1380 978 1380 1051 1307 c 128,-1,9
 1124 1234 1124 1234 1124 1126 c 0,10,11
 1124 1019 1124 1019 1051 946 c 0,12,13
 977 872 977 872 870 872 c 0,0,1
1393 0 m 1,14,-1
 348 0 l 1,15,-1
 0 0 l 1,16,-1
 0 348 l 1,17,-1
 0 2253 l 1,18,-1
 348 2253 l 1,19,-1
 348 348 l 1,20,-1
 1393 348 l 1,21,-1
 1393 2253 l 1,22,-1
 1741 2253 l 1,23,-1
 1741 348 l 1,24,-1
 1741 0 l 1,25,-1
 1393 0 l 1,14,-1
EndSplineSet
Validated: 1
EndChar

StartChar: less
Encoding: 60 60 28
Width: 4368
GlyphClass: 1
Flags: W
LayerCount: 2
Fore
SplineSet
1988 2402 m 256,0,1
 1883 2402 1883 2402 1808 2477 c 0,2,3
 1734 2553 1734 2553 1734 2657 c 0,4,5
 1734 2762 1734 2762 1808 2836 c 0,6,7
 1883 2911 1883 2911 1988 2911 c 256,8,9
 2093 2911 2093 2911 2168 2836 c 0,10,11
 2243 2762 2243 2762 2243 2657 c 128,-1,12
 2243 2552 2243 2552 2168 2477 c 128,-1,13
 2093 2402 2093 2402 1988 2402 c 256,0,1
3006 -210 m 1,14,-1
 3355 -210 l 1,15,-1
 3355 -779 l 1,16,-1
 3006 -779 l 1,17,-1
 3006 -778 l 1,18,-1
 972 -778 l 1,19,-1
 972 -779 l 1,20,-1
 623 -779 l 1,21,-1
 623 -210 l 1,22,-1
 972 -210 l 1,23,-1
 972 -430 l 1,24,-1
 3006 -430 l 1,25,-1
 3006 -210 l 1,14,-1
1447 2282 m 1,26,-1
 1795 2282 l 1,27,-1
 1795 1933 l 1,28,-1
 1795 29 l 1,29,-1
 1447 29 l 1,30,-1
 1447 1933 l 1,31,-1
 404 1933 l 1,32,-1
 404 29 l 1,33,-1
 55 29 l 1,34,-1
 55 1933 l 1,35,-1
 55 2282 l 1,36,-1
 404 2282 l 1,37,-1
 1447 2282 l 1,26,-1
3922 2282 m 1,38,-1
 3922 1933 l 1,39,-1
 3922 378 l 1,40,-1
 3922 29 l 1,41,-1
 3574 29 l 1,42,-1
 2182 29 l 1,43,-1
 2182 378 l 1,44,-1
 3574 378 l 1,45,-1
 3574 1933 l 1,46,-1
 2182 1933 l 1,47,-1
 2182 2282 l 1,48,-1
 3574 2282 l 1,49,-1
 3922 2282 l 1,38,-1
EndSplineSet
Validated: 1
EndChar

StartChar: equal
Encoding: 61 61 29
Width: 1890
GlyphClass: 1
Flags: W
LayerCount: 2
Fore
SplineSet
1392 917 m 1,0,-1
 240 917 l 1,1,-1
 240 1290 l 1,2,-1
 1392 1290 l 1,3,-1
 1392 917 l 1,0,-1
EndSplineSet
Validated: 1
EndChar

StartChar: greater
Encoding: 62 62 30
Width: 4353
GlyphClass: 1
Flags: W
LayerCount: 2
Fore
SplineSet
1973 2402 m 256,0,1
 1868 2402 1868 2402 1794 2477 c 0,2,3
 1719 2552 1719 2552 1719 2657 c 256,4,5
 1719 2762 1719 2762 1794 2836 c 0,6,7
 1868 2911 1868 2911 1973 2911 c 128,-1,8
 2078 2911 2078 2911 2153 2836 c 0,9,10
 2228 2762 2228 2762 2228 2657 c 128,-1,11
 2228 2552 2228 2552 2153 2477 c 128,-1,12
 2078 2402 2078 2402 1973 2402 c 256,0,1
2991 -210 m 1,13,-1
 3340 -210 l 1,14,-1
 3340 -779 l 1,15,-1
 2991 -779 l 1,16,-1
 2991 -778 l 1,17,-1
 957 -778 l 1,18,-1
 957 -779 l 1,19,-1
 608 -779 l 1,20,-1
 608 -210 l 1,21,-1
 957 -210 l 1,22,-1
 957 -430 l 1,23,-1
 2991 -430 l 1,24,-1
 2991 -210 l 1,13,-1
3907 2282 m 1,25,-1
 3907 1933 l 1,26,-1
 3907 378 l 1,27,-1
 3907 29 l 1,28,-1
 3559 29 l 1,29,-1
 2167 29 l 1,30,-1
 2167 378 l 1,31,-1
 3559 378 l 1,32,-1
 3559 1933 l 1,33,-1
 2167 1933 l 1,34,-1
 2167 2282 l 1,35,-1
 3559 2282 l 1,36,-1
 3907 2282 l 1,25,-1
1780 2282 m 1,37,-1
 1780 1933 l 1,38,-1
 1780 378 l 1,39,-1
 1780 29 l 1,40,-1
 1432 29 l 1,41,-1
 389 29 l 1,42,-1
 40 29 l 1,43,-1
 40 378 l 1,44,-1
 40 1933 l 1,45,-1
 40 2282 l 1,46,-1
 389 2282 l 1,47,-1
 1432 2282 l 1,48,-1
 1780 2282 l 1,37,-1
389 378 m 1,49,-1
 1432 378 l 1,50,-1
 1432 1933 l 1,51,-1
 389 1933 l 1,52,-1
 389 378 l 1,49,-1
EndSplineSet
Validated: 1
EndChar

StartChar: question
Encoding: 63 63 31
Width: 1196
GlyphClass: 1
Flags: W
LayerCount: 2
Fore
SplineSet
369 1515 m 0,0,1
 216 1515 216 1515 108 1623 c 128,-1,2
 0 1731 0 1731 0 1884 c 0,3,4
 0 2036 0 2036 108 2144.5 c 128,-1,5
 216 2253 216 2253 369 2253 c 0,6,7
 521 2253 521 2253 629 2144.5 c 128,-1,8
 737 2036 737 2036 737 1884 c 0,9,10
 737 1731 737 1731 629 1623 c 128,-1,11
 521 1515 521 1515 369 1515 c 0,0,1
369 0 m 0,12,13
 216 0 216 0 108 108 c 128,-1,14
 0 216 0 216 0 369 c 0,15,16
 0 521 0 521 108 629 c 128,-1,17
 216 737 216 737 369 737 c 0,18,19
 521 737 521 737 629 629 c 128,-1,20
 737 521 737 521 737 369 c 0,21,22
 737 216 737 216 629 108 c 128,-1,23
 521 0 521 0 369 0 c 0,12,13
369 1625 m 0,24,25
 476 1625 476 1625 552 1700.5 c 128,-1,26
 628 1776 628 1776 628 1884 c 0,27,28
 628 1991 628 1991 552 2067 c 128,-1,29
 476 2143 476 2143 369 2143 c 0,30,31
 261 2143 261 2143 185 2067 c 128,-1,32
 109 1991 109 1991 109 1884 c 0,33,34
 109 1776 109 1776 185 1700.5 c 128,-1,35
 261 1625 261 1625 369 1625 c 0,24,25
EndSplineSet
Validated: 1
EndChar

StartChar: at
Encoding: 64 64 32
Width: 4363
GlyphClass: 1
Flags: W
LayerCount: 2
Fore
SplineSet
2983 -210 m 1,0,-1
 3332 -210 l 1,1,-1
 3332 -779 l 1,2,-1
 2983 -779 l 1,3,-1
 2983 -778 l 1,4,-1
 949 -778 l 1,5,-1
 949 -779 l 1,6,-1
 600 -779 l 1,7,-1
 600 -210 l 1,8,-1
 949 -210 l 1,9,-1
 949 -430 l 1,10,-1
 2983 -430 l 1,11,-1
 2983 -210 l 1,0,-1
1424 2282 m 1,12,-1
 1772 2282 l 1,13,-1
 1772 1933 l 1,14,-1
 1772 29 l 1,15,-1
 1424 29 l 1,16,-1
 1424 1933 l 1,17,-1
 381 1933 l 1,18,-1
 381 29 l 1,19,-1
 32 29 l 1,20,-1
 32 1933 l 1,21,-1
 32 2282 l 1,22,-1
 381 2282 l 1,23,-1
 1424 2282 l 1,12,-1
3899 2282 m 1,24,-1
 3899 1933 l 1,25,-1
 3899 378 l 1,26,-1
 3899 29 l 1,27,-1
 3551 29 l 1,28,-1
 2159 29 l 1,29,-1
 2159 378 l 1,30,-1
 3551 378 l 1,31,-1
 3551 1933 l 1,32,-1
 2159 1933 l 1,33,-1
 2159 2282 l 1,34,-1
 3551 2282 l 1,35,-1
 3899 2282 l 1,24,-1
EndSplineSet
Validated: 1
EndChar

StartChar: A
Encoding: 65 65 33
Width: 2195
GlyphClass: 1
Flags: W
LayerCount: 2
Fore
SplineSet
870 872 m 0,0,1
 764 872 764 872 690 946 c 128,-1,2
 616 1020 616 1020 616 1126 c 0,3,4
 616 1233 616 1233 690 1307 c 0,5,6
 763 1380 763 1380 870 1380 c 0,7,8
 978 1380 978 1380 1051 1307 c 128,-1,9
 1124 1234 1124 1234 1124 1126 c 0,10,11
 1124 1019 1124 1019 1051 946 c 0,12,13
 977 872 977 872 870 872 c 0,0,1
1393 2253 m 1,14,-1
 1741 2253 l 1,15,-1
 1741 1905 l 1,16,-1
 1741 0 l 1,17,-1
 1393 0 l 1,18,-1
 1393 1905 l 1,19,-1
 348 1905 l 1,20,-1
 348 0 l 1,21,-1
 0 0 l 1,22,-1
 0 1905 l 1,23,-1
 0 2253 l 1,24,-1
 348 2253 l 1,25,-1
 1393 2253 l 1,14,-1
EndSplineSet
Validated: 1
EndChar

StartChar: B
Encoding: 66 66 34
Width: 2195
GlyphClass: 1
Flags: W
LayerCount: 2
Fore
SplineSet
0 0 m 1,0,-1
 0 348 l 1,1,-1
 1393 348 l 1,2,-1
 1393 952 l 1,3,-1
 0 952 l 1,4,-1
 0 1300 l 1,5,-1
 696 1300 l 1,6,-1
 696 2253 l 1,7,-1
 1044 2253 l 1,8,-1
 1044 1300 l 1,9,-1
 1741 1300 l 1,10,-1
 1741 1008 l 1,11,-1
 1741 952 l 1,12,-1
 1741 348 l 1,13,-1
 1741 0 l 1,14,-1
 1393 0 l 1,15,-1
 0 0 l 1,0,-1
EndSplineSet
Validated: 1
EndChar

StartChar: C
Encoding: 67 67 35
Width: 2048
GlyphClass: 1
Flags: W
LayerCount: 2
Fore
SplineSet
1546 2253 m 1,0,-1
 1894 2253 l 1,1,-1
 1894 1126 l 1,2,-1
 1372 1126 l 1,3,-1
 1372 0 l 1,4,-1
 154 0 l 1,5,-1
 154 348 l 1,6,-1
 1024 348 l 1,7,-1
 1024 1474 l 1,8,-1
 1546 1474 l 1,9,-1
 1546 2253 l 1,0,-1
EndSplineSet
Validated: 1
EndChar

StartChar: D
Encoding: 68 68 36
Width: 2195
GlyphClass: 1
Flags: W
LayerCount: 2
Fore
SplineSet
1894 1894 m 1,0,-1
 1183 1894 l 1,1,-1
 1183 1289 l 1,2,-1
 1894 1289 l 1,3,-1
 1894 941 l 1,4,-1
 1183 941 l 1,5,-1
 1183 337 l 1,6,-1
 1894 337 l 1,7,-1
 1894 -11 l 1,8,-1
 154 -11 l 1,9,-1
 154 337 l 1,10,-1
 835 337 l 1,11,-1
 835 2242 l 1,12,-1
 1894 2242 l 1,13,-1
 1894 1894 l 1,0,-1
EndSplineSet
Validated: 1
EndChar

StartChar: E
Encoding: 69 69 37
Width: 2195
GlyphClass: 1
Flags: W
LayerCount: 2
Fore
SplineSet
870 872 m 0,0,1
 764 872 764 872 690 946 c 128,-1,2
 616 1020 616 1020 616 1126 c 0,3,4
 616 1233 616 1233 690 1307 c 0,5,6
 763 1380 763 1380 870 1380 c 0,7,8
 978 1380 978 1380 1051 1307 c 128,-1,9
 1124 1234 1124 1234 1124 1126 c 0,10,11
 1124 1019 1124 1019 1051 946 c 0,12,13
 977 872 977 872 870 872 c 0,0,1
0 0 m 1,14,-1
 0 348 l 1,15,-1
 0 1905 l 1,16,-1
 0 2253 l 1,17,-1
 348 2253 l 1,18,-1
 1741 2253 l 1,19,-1
 1741 1905 l 1,20,-1
 348 1905 l 1,21,-1
 348 348 l 1,22,-1
 1741 348 l 1,23,-1
 1741 0 l 1,24,-1
 348 0 l 1,25,-1
 0 0 l 1,14,-1
EndSplineSet
Validated: 1
EndChar

StartChar: F
Encoding: 70 70 38
Width: 2195
GlyphClass: 1
Flags: W
LayerCount: 2
Fore
SplineSet
1741 1126 m 1,0,-1
 1741 952 l 1,1,-1
 1741 0 l 1,2,-1
 1393 0 l 1,3,-1
 1393 952 l 1,4,-1
 0 952 l 1,5,-1
 0 1300 l 1,6,-1
 1741 1300 l 1,7,-1
 1741 1126 l 1,0,-1
0 1905 m 1,8,-1
 0 2253 l 1,9,-1
 1741 2253 l 1,10,-1
 1741 1905 l 1,11,-1
 0 1905 l 1,8,-1
EndSplineSet
Validated: 1
EndChar

StartChar: G
Encoding: 71 71 39
Width: 2195
GlyphClass: 1
Flags: W
LayerCount: 2
Fore
SplineSet
1741 1905 m 1,0,-1
 0 1905 l 1,1,-1
 0 2253 l 1,2,-1
 1741 2253 l 1,3,-1
 1741 1905 l 1,0,-1
1741 1126 m 1,4,-1
 1741 952 l 1,5,-1
 1741 348 l 1,6,-1
 1741 0 l 1,7,-1
 1393 0 l 1,8,-1
 348 0 l 1,9,-1
 0 0 l 1,10,-1
 0 348 l 1,11,-1
 0 952 l 1,12,-1
 0 1126 l 1,13,-1
 0 1300 l 1,14,-1
 1741 1300 l 1,15,-1
 1741 1126 l 1,4,-1
1393 348 m 1,16,-1
 1393 952 l 1,17,-1
 348 952 l 1,18,-1
 348 348 l 1,19,-1
 1393 348 l 1,16,-1
EndSplineSet
Validated: 1
EndChar

StartChar: H
Encoding: 72 72 40
Width: 2195
GlyphClass: 1
Flags: W
LayerCount: 2
Fore
SplineSet
1393 2253 m 1,0,-1
 1741 2253 l 1,1,-1
 1741 1300 l 1,2,-1
 1741 952 l 1,3,-1
 1741 0 l 1,4,-1
 1393 0 l 1,5,-1
 1393 952 l 1,6,-1
 0 952 l 1,7,-1
 0 1300 l 1,8,-1
 1393 1300 l 1,9,-1
 1393 2253 l 1,0,-1
EndSplineSet
Validated: 1
EndChar

StartChar: I
Encoding: 73 73 41
Width: 2195
GlyphClass: 1
Flags: W
LayerCount: 2
Fore
SplineSet
1741 2253 m 1,0,-1
 1741 1905 l 1,1,-1
 1741 348 l 1,2,-1
 1741 0 l 1,3,-1
 1393 0 l 1,4,-1
 0 0 l 1,5,-1
 0 348 l 1,6,-1
 1393 348 l 1,7,-1
 1393 1905 l 1,8,-1
 0 1905 l 1,9,-1
 0 2253 l 1,10,-1
 1393 2253 l 1,11,-1
 1741 2253 l 1,0,-1
870 872 m 0,12,13
 764 872 764 872 690 946 c 128,-1,14
 616 1020 616 1020 616 1126 c 0,15,16
 616 1233 616 1233 690 1307 c 0,17,18
 763 1380 763 1380 870 1380 c 0,19,20
 978 1380 978 1380 1051 1307 c 128,-1,21
 1124 1234 1124 1234 1124 1126 c 0,22,23
 1124 1019 1124 1019 1051 946 c 0,24,25
 977 872 977 872 870 872 c 0,12,13
EndSplineSet
Validated: 1
EndChar

StartChar: J
Encoding: 74 74 42
Width: 2195
GlyphClass: 1
Flags: W
LayerCount: 2
Fore
SplineSet
0 0 m 1,0,-1
 0 348 l 1,1,-1
 1393 348 l 1,2,-1
 1393 2253 l 1,3,-1
 1741 2253 l 1,4,-1
 1741 348 l 1,5,-1
 1741 0 l 1,6,-1
 1393 0 l 1,7,-1
 0 0 l 1,0,-1
870 872 m 0,8,9
 764 872 764 872 690 946 c 128,-1,10
 616 1020 616 1020 616 1126 c 0,11,12
 616 1233 616 1233 690 1307 c 0,13,14
 763 1380 763 1380 870 1380 c 0,15,16
 978 1380 978 1380 1051 1307 c 128,-1,17
 1124 1234 1124 1234 1124 1126 c 0,18,19
 1124 1019 1124 1019 1051 946 c 0,20,21
 977 872 977 872 870 872 c 0,8,9
EndSplineSet
Validated: 1
EndChar

StartChar: K
Encoding: 75 75 43
Width: 2048
GlyphClass: 1
Flags: W
LayerCount: 2
Fore
SplineSet
1894 1470 m 1,0,-1
 1198 1470 l 1,1,-1
 1198 1035 l 1,2,-1
 1894 1035 l 1,3,-1
 1894 0 l 1,4,-1
 1546 0 l 1,5,-1
 1546 687 l 1,6,-1
 502 687 l 1,7,-1
 502 0 l 1,8,-1
 154 0 l 1,9,-1
 154 1035 l 1,10,-1
 850 1035 l 1,11,-1
 850 1470 l 1,12,-1
 154 1470 l 1,13,-1
 154 1818 l 1,14,-1
 850 1818 l 1,15,-1
 850 2253 l 1,16,-1
 1198 2253 l 1,17,-1
 1198 1818 l 1,18,-1
 1894 1818 l 1,19,-1
 1894 1470 l 1,0,-1
EndSplineSet
Validated: 1
EndChar

StartChar: L
Encoding: 76 76 44
Width: 2195
GlyphClass: 1
Flags: W
LayerCount: 2
Fore
SplineSet
1741 0 m 1,0,-1
 348 0 l 1,1,-1
 0 0 l 1,2,-1
 0 348 l 1,3,-1
 0 2253 l 1,4,-1
 348 2253 l 1,5,-1
 348 348 l 1,6,-1
 1741 348 l 1,7,-1
 1741 0 l 1,0,-1
EndSplineSet
Validated: 1
EndChar

StartChar: M
Encoding: 77 77 45
Width: 2195
GlyphClass: 1
Flags: W
LayerCount: 2
Fore
SplineSet
0 1905 m 1,0,-1
 0 2253 l 1,1,-1
 696 2253 l 1,2,-1
 1008 2253 l 1,3,-1
 1044 2253 l 1,4,-1
 1044 1300 l 1,5,-1
 1407 1300 l 1,6,-1
 1407 952 l 1,7,-1
 1044 952 l 1,8,-1
 1044 348 l 1,9,-1
 1741 348 l 1,10,-1
 1741 0 l 1,11,-1
 1044 0 l 1,12,-1
 733 0 l 1,13,-1
 696 0 l 1,14,-1
 696 952 l 1,15,-1
 334 952 l 1,16,-1
 334 1300 l 1,17,-1
 696 1300 l 1,18,-1
 696 1905 l 1,19,-1
 0 1905 l 1,0,-1
EndSplineSet
Validated: 1
EndChar

StartChar: N
Encoding: 78 78 46
Width: 2195
GlyphClass: 1
Flags: W
LayerCount: 2
Fore
SplineSet
154 2253 m 1,0,-1
 1894 2253 l 1,1,-1
 1894 1905 l 1,2,-1
 1198 1905 l 1,3,-1
 1198 1300 l 1,4,-1
 850 1300 l 1,5,-1
 850 1905 l 1,6,-1
 154 1905 l 1,7,-1
 154 2253 l 1,0,-1
1198 348 m 1,8,-1
 1894 348 l 1,9,-1
 1894 0 l 1,10,-1
 154 0 l 1,11,-1
 154 348 l 1,12,-1
 850 348 l 1,13,-1
 850 952 l 1,14,-1
 1198 952 l 1,15,-1
 1198 348 l 1,8,-1
EndSplineSet
Validated: 1
EndChar

StartChar: O
Encoding: 79 79 47
Width: 4366
GlyphClass: 1
Flags: W
LayerCount: 2
Fore
SplineSet
2996 -197 m 1,0,-1
 3346 -197 l 1,1,-1
 3346 -766 l 1,2,-1
 2996 -766 l 1,3,-1
 2996 -764 l 1,4,-1
 963 -764 l 1,5,-1
 963 -766 l 1,6,-1
 614 -766 l 1,7,-1
 614 -197 l 1,8,-1
 963 -197 l 1,9,-1
 963 -416 l 1,10,-1
 2996 -416 l 1,11,-1
 2996 -197 l 1,0,-1
3914 2296 m 1,12,-1
 3914 1948 l 1,13,-1
 3914 391 l 1,14,-1
 3914 43 l 1,15,-1
 3566 43 l 1,16,-1
 2173 43 l 1,17,-1
 2173 391 l 1,18,-1
 3566 391 l 1,19,-1
 3566 1948 l 1,20,-1
 2173 1948 l 1,21,-1
 2173 2296 l 1,22,-1
 3566 2296 l 1,23,-1
 3914 2296 l 1,12,-1
1786 2296 m 1,24,-1
 1786 1948 l 1,25,-1
 1786 391 l 1,26,-1
 1786 43 l 1,27,-1
 1438 43 l 1,28,-1
 395 43 l 1,29,-1
 45 43 l 1,30,-1
 45 391 l 1,31,-1
 45 1948 l 1,32,-1
 45 2296 l 1,33,-1
 395 2296 l 1,34,-1
 1438 2296 l 1,35,-1
 1786 2296 l 1,24,-1
395 391 m 1,36,-1
 1438 391 l 1,37,-1
 1438 1948 l 1,38,-1
 395 1948 l 1,39,-1
 395 391 l 1,36,-1
EndSplineSet
Validated: 1
EndChar

StartChar: P
Encoding: 80 80 48
Width: 2195
GlyphClass: 1
Flags: W
LayerCount: 2
Fore
SplineSet
1741 2253 m 1,0,-1
 1741 1905 l 1,1,-1
 348 1905 l 1,2,-1
 348 1300 l 1,3,-1
 1741 1300 l 1,4,-1
 1741 952 l 1,5,-1
 1044 952 l 1,6,-1
 1044 0 l 1,7,-1
 696 0 l 1,8,-1
 696 952 l 1,9,-1
 0 952 l 1,10,-1
 0 1245 l 1,11,-1
 0 1300 l 1,12,-1
 0 1905 l 1,13,-1
 0 2253 l 1,14,-1
 348 2253 l 1,15,-1
 1741 2253 l 1,0,-1
EndSplineSet
Validated: 1
EndChar

StartChar: R
Encoding: 82 82 49
Width: 2195
GlyphClass: 1
Flags: W
LayerCount: 2
Fore
SplineSet
0 2253 m 1,0,-1
 1393 2253 l 1,1,-1
 1741 2253 l 1,2,-1
 1741 1905 l 1,3,-1
 1741 1300 l 1,4,-1
 1741 1245 l 1,5,-1
 1741 952 l 1,6,-1
 1044 952 l 1,7,-1
 1044 0 l 1,8,-1
 696 0 l 1,9,-1
 696 952 l 1,10,-1
 0 952 l 1,11,-1
 0 1300 l 1,12,-1
 1393 1300 l 1,13,-1
 1393 1905 l 1,14,-1
 0 1905 l 1,15,-1
 0 2253 l 1,0,-1
EndSplineSet
Validated: 1
EndChar

StartChar: S
Encoding: 83 83 50
Width: 2195
GlyphClass: 1
Flags: W
LayerCount: 2
Fore
SplineSet
0 1905 m 1,0,-1
 0 2253 l 1,1,-1
 1741 2253 l 1,2,-1
 1741 1905 l 1,3,-1
 0 1905 l 1,0,-1
0 0 m 1,4,-1
 0 348 l 1,5,-1
 1393 348 l 1,6,-1
 1393 952 l 1,7,-1
 0 952 l 1,8,-1
 0 1300 l 1,9,-1
 1741 1300 l 1,10,-1
 1741 1126 l 1,11,-1
 1741 952 l 1,12,-1
 1741 348 l 1,13,-1
 1741 0 l 1,14,-1
 1393 0 l 1,15,-1
 0 0 l 1,4,-1
EndSplineSet
Validated: 1
EndChar

StartChar: T
Encoding: 84 84 51
Width: 2195
GlyphClass: 1
Flags: W
LayerCount: 2
Fore
SplineSet
0 0 m 1,0,-1
 0 348 l 1,1,-1
 696 348 l 1,2,-1
 696 2253 l 1,3,-1
 1044 2253 l 1,4,-1
 1044 348 l 1,5,-1
 1741 348 l 1,6,-1
 1741 0 l 1,7,-1
 1044 0 l 1,8,-1
 696 0 l 1,9,-1
 0 0 l 1,0,-1
356 606 m 0,10,11
 252 606 252 606 178 680 c 0,12,13
 102 756 102 756 102 860 c 128,-1,14
 102 964 102 964 178 1040 c 0,15,16
 252 1114 252 1114 356 1114 c 0,17,18
 463 1114 463 1114 537 1040 c 0,19,20
 612 965 612 965 612 860 c 128,-1,21
 612 755 612 755 537 680 c 0,22,23
 463 606 463 606 356 606 c 0,10,11
EndSplineSet
Validated: 1
EndChar

StartChar: U
Encoding: 85 85 52
Width: 2195
GlyphClass: 1
Flags: W
LayerCount: 2
Fore
SplineSet
870 872 m 0,0,1
 764 872 764 872 690 946 c 128,-1,2
 616 1020 616 1020 616 1126 c 0,3,4
 616 1233 616 1233 690 1307 c 0,5,6
 763 1380 763 1380 870 1380 c 0,7,8
 978 1380 978 1380 1051 1307 c 128,-1,9
 1124 1234 1124 1234 1124 1126 c 0,10,11
 1124 1019 1124 1019 1051 946 c 0,12,13
 977 872 977 872 870 872 c 0,0,1
1393 0 m 1,14,-1
 348 0 l 1,15,-1
 0 0 l 1,16,-1
 0 348 l 1,17,-1
 0 2253 l 1,18,-1
 348 2253 l 1,19,-1
 348 348 l 1,20,-1
 1393 348 l 1,21,-1
 1393 2253 l 1,22,-1
 1741 2253 l 1,23,-1
 1741 348 l 1,24,-1
 1741 0 l 1,25,-1
 1393 0 l 1,14,-1
EndSplineSet
Validated: 1
EndChar

StartChar: V
Encoding: 86 86 53
Width: 2195
GlyphClass: 1
Flags: W
LayerCount: 2
Fore
SplineSet
1741 1126 m 1,0,-1
 1741 889 l 1,1,-1
 1741 348 l 1,2,-1
 1741 0 l 1,3,-1
 1393 0 l 1,4,-1
 348 0 l 1,5,-1
 0 0 l 1,6,-1
 0 348 l 1,7,-1
 0 889 l 1,8,-1
 0 1126 l 1,9,-1
 0 1237 l 1,10,-1
 696 1237 l 1,11,-1
 696 2253 l 1,12,-1
 1044 2253 l 1,13,-1
 1044 1237 l 1,14,-1
 1741 1237 l 1,15,-1
 1741 1126 l 1,0,-1
1393 348 m 1,16,-1
 1393 889 l 1,17,-1
 348 889 l 1,18,-1
 348 348 l 1,19,-1
 1393 348 l 1,16,-1
EndSplineSet
Validated: 1
EndChar

StartChar: W
Encoding: 87 87 54
Width: 2195
GlyphClass: 1
Flags: W
LayerCount: 2
Fore
SplineSet
1741 1126 m 1,0,-1
 1741 1016 l 1,1,-1
 1044 1016 l 1,2,-1
 1044 0 l 1,3,-1
 696 0 l 1,4,-1
 696 1016 l 1,5,-1
 0 1016 l 1,6,-1
 0 1126 l 1,7,-1
 0 1366 l 1,8,-1
 0 1905 l 1,9,-1
 0 2253 l 1,10,-1
 348 2253 l 1,11,-1
 1393 2253 l 1,12,-1
 1741 2253 l 1,13,-1
 1741 1905 l 1,14,-1
 1741 1366 l 1,15,-1
 1741 1126 l 1,0,-1
1393 1905 m 1,16,-1
 348 1905 l 1,17,-1
 348 1366 l 1,18,-1
 1393 1366 l 1,19,-1
 1393 1905 l 1,16,-1
EndSplineSet
Validated: 1
EndChar

StartChar: X
Encoding: 88 88 55
Width: 2048
GlyphClass: 1
Flags: W
LayerCount: 2
Fore
SplineSet
1894 1470 m 1,0,-1
 1198 1470 l 1,1,-1
 1198 1035 l 1,2,-1
 1894 1035 l 1,3,-1
 1894 0 l 1,4,-1
 1546 0 l 1,5,-1
 1546 687 l 1,6,-1
 502 687 l 1,7,-1
 502 0 l 1,8,-1
 154 0 l 1,9,-1
 154 1035 l 1,10,-1
 850 1035 l 1,11,-1
 850 1470 l 1,12,-1
 154 1470 l 1,13,-1
 154 1818 l 1,14,-1
 850 1818 l 1,15,-1
 850 2253 l 1,16,-1
 1198 2253 l 1,17,-1
 1198 1818 l 1,18,-1
 1894 1818 l 1,19,-1
 1894 1470 l 1,0,-1
EndSplineSet
Validated: 1
EndChar

StartChar: Y
Encoding: 89 89 56
Width: 2195
GlyphClass: 1
Flags: W
LayerCount: 2
Fore
SplineSet
1741 1126 m 1,0,-1
 1741 952 l 1,1,-1
 1741 0 l 1,2,-1
 1393 0 l 1,3,-1
 1393 952 l 1,4,-1
 0 952 l 1,5,-1
 0 1126 l 1,6,-1
 0 1300 l 1,7,-1
 0 2253 l 1,8,-1
 348 2253 l 1,9,-1
 348 1300 l 1,10,-1
 1393 1300 l 1,11,-1
 1393 2253 l 1,12,-1
 1741 2253 l 1,13,-1
 1741 1300 l 1,14,-1
 1741 1245 l 1,15,-1
 1741 1126 l 1,0,-1
EndSplineSet
Validated: 1
EndChar

StartChar: Z
Encoding: 90 90 57
Width: 2195
GlyphClass: 1
Flags: W
LayerCount: 2
Fore
SplineSet
1741 1126 m 1,0,-1
 1741 952 l 1,1,-1
 1741 0 l 1,2,-1
 1393 0 l 1,3,-1
 1393 952 l 1,4,-1
 0 952 l 1,5,-1
 0 1126 l 1,6,-1
 0 1300 l 1,7,-1
 0 2253 l 1,8,-1
 348 2253 l 1,9,-1
 348 1300 l 1,10,-1
 1741 1300 l 1,11,-1
 1741 1126 l 1,0,-1
EndSplineSet
Validated: 1
EndChar

StartChar: bracketleft
Encoding: 91 91 58
Width: 2199
GlyphClass: 1
Flags: W
LayerCount: 2
Fore
SplineSet
870 2373 m 256,0,1
 765 2373 765 2373 690 2448 c 0,2,3
 616 2524 616 2524 616 2628 c 128,-1,4
 616 2732 616 2732 690 2808 c 0,5,6
 766 2882 766 2882 870 2882 c 128,-1,7
 974 2882 974 2882 1050 2808 c 0,8,9
 1125 2733 1125 2733 1125 2628 c 256,10,11
 1125 2523 1125 2523 1050 2448 c 128,-1,12
 975 2373 975 2373 870 2373 c 256,0,1
1741 2253 m 1,13,-1
 1741 1904 l 1,14,-1
 1741 349 l 1,15,-1
 1741 0 l 1,16,-1
 1392 0 l 1,17,-1
 0 0 l 1,18,-1
 0 349 l 1,19,-1
 1392 349 l 1,20,-1
 1392 1904 l 1,21,-1
 0 1904 l 1,22,-1
 0 2253 l 1,23,-1
 1392 2253 l 1,24,-1
 1741 2253 l 1,13,-1
EndSplineSet
Validated: 1
EndChar

StartChar: backslash
Encoding: 92 92 59
Width: 2199
GlyphClass: 1
Flags: W
LayerCount: 2
Fore
SplineSet
870 2373 m 256,0,1
 765 2373 765 2373 690 2448 c 0,2,3
 616 2524 616 2524 616 2628 c 128,-1,4
 616 2732 616 2732 690 2808 c 0,5,6
 766 2882 766 2882 870 2882 c 128,-1,7
 974 2882 974 2882 1050 2808 c 0,8,9
 1125 2733 1125 2733 1125 2628 c 256,10,11
 1125 2523 1125 2523 1050 2448 c 128,-1,12
 975 2373 975 2373 870 2373 c 256,0,1
1741 2253 m 1,13,-1
 1741 1904 l 1,14,-1
 1741 349 l 1,15,-1
 1741 0 l 1,16,-1
 1392 0 l 1,17,-1
 349 0 l 1,18,-1
 0 0 l 1,19,-1
 0 349 l 1,20,-1
 0 1904 l 1,21,-1
 0 2253 l 1,22,-1
 349 2253 l 1,23,-1
 1392 2253 l 1,24,-1
 1741 2253 l 1,13,-1
349 349 m 1,25,-1
 1392 349 l 1,26,-1
 1392 1904 l 1,27,-1
 349 1904 l 1,28,-1
 349 349 l 1,25,-1
EndSplineSet
Validated: 1
EndChar

StartChar: bracketright
Encoding: 93 93 60
Width: 2199
GlyphClass: 1
Flags: W
LayerCount: 2
Fore
SplineSet
870 2373 m 256,0,1
 765 2373 765 2373 690 2448 c 0,2,3
 616 2524 616 2524 616 2628 c 128,-1,4
 616 2732 616 2732 690 2808 c 0,5,6
 766 2882 766 2882 870 2882 c 128,-1,7
 974 2882 974 2882 1050 2808 c 0,8,9
 1125 2733 1125 2733 1125 2628 c 256,10,11
 1125 2523 1125 2523 1050 2448 c 128,-1,12
 975 2373 975 2373 870 2373 c 256,0,1
1741 2253 m 1,13,-1
 1741 1904 l 1,14,-1
 1741 349 l 1,15,-1
 1741 0 l 1,16,-1
 1392 0 l 1,17,-1
 0 0 l 1,18,-1
 0 349 l 1,19,-1
 1392 349 l 1,20,-1
 1392 1904 l 1,21,-1
 0 1904 l 1,22,-1
 0 2253 l 1,23,-1
 1392 2253 l 1,24,-1
 1741 2253 l 1,13,-1
870 872 m 256,25,26
 766 872 766 872 690 946 c 0,27,28
 616 1022 616 1022 616 1126 c 128,-1,29
 616 1230 616 1230 690 1306 c 0,30,31
 765 1381 765 1381 870 1381 c 256,32,33
 975 1381 975 1381 1050 1306 c 128,-1,34
 1125 1231 1125 1231 1125 1126 c 256,35,36
 1125 1021 1125 1021 1050 946 c 0,37,38
 974 872 974 872 870 872 c 256,25,26
EndSplineSet
Validated: 1
EndChar

StartChar: asciicircum
Encoding: 94 94 61
Width: 4372
GlyphClass: 1
Flags: W
LayerCount: 2
Fore
SplineSet
2997 -210 m 1,0,-1
 3346 -210 l 1,1,-1
 3346 -779 l 1,2,-1
 2997 -779 l 1,3,-1
 2997 -778 l 1,4,-1
 963 -778 l 1,5,-1
 963 -779 l 1,6,-1
 614 -779 l 1,7,-1
 614 -210 l 1,8,-1
 963 -210 l 1,9,-1
 963 -430 l 1,10,-1
 2997 -430 l 1,11,-1
 2997 -210 l 1,0,-1
3565 29 m 1,12,-1
 2521 29 l 1,13,-1
 2173 29 l 1,14,-1
 2173 378 l 1,15,-1
 2173 2282 l 1,16,-1
 2521 2282 l 1,17,-1
 2521 378 l 1,18,-1
 3565 378 l 1,19,-1
 3565 2282 l 1,20,-1
 3914 2282 l 1,21,-1
 3914 378 l 1,22,-1
 3914 29 l 1,23,-1
 3565 29 l 1,12,-1
1786 2282 m 1,24,-1
 1786 1933 l 1,25,-1
 1786 378 l 1,26,-1
 1786 29 l 1,27,-1
 1438 29 l 1,28,-1
 46 29 l 1,29,-1
 46 378 l 1,30,-1
 1438 378 l 1,31,-1
 1438 1933 l 1,32,-1
 46 1933 l 1,33,-1
 46 2282 l 1,34,-1
 1438 2282 l 1,35,-1
 1786 2282 l 1,24,-1
EndSplineSet
Validated: 1
EndChar

StartChar: underscore
Encoding: 95 95 62
Width: 2199
GlyphClass: 1
Flags: W
LayerCount: 2
Fore
SplineSet
870 2373 m 256,0,1
 765 2373 765 2373 690 2448 c 0,2,3
 616 2524 616 2524 616 2628 c 128,-1,4
 616 2732 616 2732 690 2808 c 0,5,6
 766 2882 766 2882 870 2882 c 128,-1,7
 974 2882 974 2882 1050 2808 c 0,8,9
 1125 2733 1125 2733 1125 2628 c 256,10,11
 1125 2523 1125 2523 1050 2448 c 128,-1,12
 975 2373 975 2373 870 2373 c 256,0,1
870 872 m 256,13,14
 766 872 766 872 690 946 c 0,15,16
 616 1022 616 1022 616 1126 c 128,-1,17
 616 1230 616 1230 690 1306 c 0,18,19
 765 1381 765 1381 870 1381 c 256,20,21
 975 1381 975 1381 1050 1306 c 128,-1,22
 1125 1231 1125 1231 1125 1126 c 256,23,24
 1125 1021 1125 1021 1050 946 c 0,25,26
 974 872 974 872 870 872 c 256,13,14
0 0 m 1,27,-1
 0 349 l 1,28,-1
 0 1904 l 1,29,-1
 0 2253 l 1,30,-1
 349 2253 l 1,31,-1
 1741 2253 l 1,32,-1
 1741 1904 l 1,33,-1
 349 1904 l 1,34,-1
 349 349 l 1,35,-1
 1741 349 l 1,36,-1
 1741 0 l 1,37,-1
 349 0 l 1,38,-1
 0 0 l 1,27,-1
EndSplineSet
Validated: 1
EndChar

StartChar: a
Encoding: 97 97 63
Width: 2195
GlyphClass: 1
Flags: W
LayerCount: 2
Fore
SplineSet
1393 2253 m 1,0,-1
 1741 2253 l 1,1,-1
 1741 1905 l 1,2,-1
 1741 0 l 1,3,-1
 1393 0 l 1,4,-1
 1393 1905 l 1,5,-1
 348 1905 l 1,6,-1
 348 0 l 1,7,-1
 0 0 l 1,8,-1
 0 1905 l 1,9,-1
 0 2253 l 1,10,-1
 348 2253 l 1,11,-1
 1393 2253 l 1,0,-1
EndSplineSet
Validated: 1
EndChar

StartChar: b
Encoding: 98 98 64
Width: 2195
GlyphClass: 1
Flags: W
LayerCount: 2
Fore
SplineSet
0 0 m 1,0,-1
 0 348 l 1,1,-1
 1393 348 l 1,2,-1
 1393 952 l 1,3,-1
 0 952 l 1,4,-1
 0 1300 l 1,5,-1
 696 1300 l 1,6,-1
 696 2253 l 1,7,-1
 1044 2253 l 1,8,-1
 1044 1300 l 1,9,-1
 1741 1300 l 1,10,-1
 1741 1008 l 1,11,-1
 1741 952 l 1,12,-1
 1741 348 l 1,13,-1
 1741 0 l 1,14,-1
 1393 0 l 1,15,-1
 0 0 l 1,0,-1
EndSplineSet
Validated: 1
EndChar

StartChar: c
Encoding: 99 99 65
Width: 2048
GlyphClass: 1
Flags: W
LayerCount: 2
Fore
SplineSet
502 1474 m 1,0,-1
 1198 1474 l 1,1,-1
 1198 348 l 1,2,-1
 1894 348 l 1,3,-1
 1894 0 l 1,4,-1
 850 0 l 1,5,-1
 850 1126 l 1,6,-1
 154 1126 l 1,7,-1
 154 2253 l 1,8,-1
 1198 2253 l 1,9,-1
 1198 1905 l 1,10,-1
 502 1905 l 1,11,-1
 502 1474 l 1,0,-1
EndSplineSet
Validated: 1
EndChar

StartChar: d
Encoding: 100 100 66
Width: 2195
GlyphClass: 1
Flags: W
LayerCount: 2
Fore
SplineSet
1741 0 m 1,0,-1
 348 0 l 1,1,-1
 0 0 l 1,2,-1
 0 348 l 1,3,-1
 0 952 l 1,4,-1
 0 1008 l 1,5,-1
 0 1300 l 1,6,-1
 696 1300 l 1,7,-1
 696 2253 l 1,8,-1
 1044 2253 l 1,9,-1
 1044 1300 l 1,10,-1
 1741 1300 l 1,11,-1
 1741 952 l 1,12,-1
 348 952 l 1,13,-1
 348 348 l 1,14,-1
 1741 348 l 1,15,-1
 1741 0 l 1,0,-1
EndSplineSet
Validated: 1
EndChar

StartChar: e
Encoding: 101 101 67
Width: 2195
GlyphClass: 1
Flags: W
LayerCount: 2
Fore
SplineSet
0 0 m 1,0,-1
 0 348 l 1,1,-1
 0 1905 l 1,2,-1
 0 2253 l 1,3,-1
 348 2253 l 1,4,-1
 1741 2253 l 1,5,-1
 1741 1905 l 1,6,-1
 348 1905 l 1,7,-1
 348 348 l 1,8,-1
 1741 348 l 1,9,-1
 1741 0 l 1,10,-1
 348 0 l 1,11,-1
 0 0 l 1,0,-1
EndSplineSet
Validated: 1
EndChar

StartChar: f
Encoding: 102 102 68
Width: 2195
GlyphClass: 1
Flags: W
LayerCount: 2
Fore
SplineSet
1741 1126 m 1,0,-1
 1741 952 l 1,1,-1
 1741 0 l 1,2,-1
 1393 0 l 1,3,-1
 1393 952 l 1,4,-1
 0 952 l 1,5,-1
 0 1300 l 1,6,-1
 1741 1300 l 1,7,-1
 1741 1126 l 1,0,-1
0 1905 m 1,8,-1
 0 2253 l 1,9,-1
 1741 2253 l 1,10,-1
 1741 1905 l 1,11,-1
 0 1905 l 1,8,-1
EndSplineSet
Validated: 1
EndChar

StartChar: g
Encoding: 103 103 69
Width: 2195
GlyphClass: 1
Flags: W
LayerCount: 2
Fore
SplineSet
1741 1905 m 1,0,-1
 0 1905 l 1,1,-1
 0 2253 l 1,2,-1
 1741 2253 l 1,3,-1
 1741 1905 l 1,0,-1
1741 1126 m 1,4,-1
 1741 952 l 1,5,-1
 1741 348 l 1,6,-1
 1741 0 l 1,7,-1
 1393 0 l 1,8,-1
 348 0 l 1,9,-1
 0 0 l 1,10,-1
 0 348 l 1,11,-1
 0 952 l 1,12,-1
 0 1126 l 1,13,-1
 0 1300 l 1,14,-1
 1741 1300 l 1,15,-1
 1741 1126 l 1,4,-1
1393 348 m 1,16,-1
 1393 952 l 1,17,-1
 348 952 l 1,18,-1
 348 348 l 1,19,-1
 1393 348 l 1,16,-1
EndSplineSet
Validated: 1
EndChar

StartChar: h
Encoding: 104 104 70
Width: 2195
GlyphClass: 1
Flags: W
LayerCount: 2
Fore
SplineSet
1393 2253 m 1,0,-1
 1741 2253 l 1,1,-1
 1741 1300 l 1,2,-1
 1741 952 l 1,3,-1
 1741 0 l 1,4,-1
 1393 0 l 1,5,-1
 1393 952 l 1,6,-1
 0 952 l 1,7,-1
 0 1300 l 1,8,-1
 1393 1300 l 1,9,-1
 1393 2253 l 1,0,-1
EndSplineSet
Validated: 1
EndChar

StartChar: i
Encoding: 105 105 71
Width: 2195
GlyphClass: 1
Flags: W
LayerCount: 2
Fore
SplineSet
1741 2253 m 1,0,-1
 1741 1905 l 1,1,-1
 1741 348 l 1,2,-1
 1741 0 l 1,3,-1
 1393 0 l 1,4,-1
 0 0 l 1,5,-1
 0 348 l 1,6,-1
 1393 348 l 1,7,-1
 1393 1905 l 1,8,-1
 0 1905 l 1,9,-1
 0 2253 l 1,10,-1
 1393 2253 l 1,11,-1
 1741 2253 l 1,0,-1
EndSplineSet
Validated: 1
EndChar

StartChar: j
Encoding: 106 106 72
Width: 2205
GlyphClass: 1
Flags: W
LayerCount: 2
Fore
SplineSet
0 0 m 1,0,-1
 0 348 l 1,1,-1
 1393 348 l 1,2,-1
 1393 2253 l 1,3,-1
 1741 2253 l 1,4,-1
 1741 348 l 1,5,-1
 1741 0 l 1,6,-1
 1393 0 l 1,7,-1
 0 0 l 1,0,-1
EndSplineSet
Validated: 1
EndChar

StartChar: k
Encoding: 107 107 73
Width: 2195
GlyphClass: 1
Flags: W
LayerCount: 2
Fore
SplineSet
0 1905 m 1,0,-1
 0 2253 l 1,1,-1
 696 2253 l 1,2,-1
 1008 2253 l 1,3,-1
 1044 2253 l 1,4,-1
 1044 348 l 1,5,-1
 1741 348 l 1,6,-1
 1741 0 l 1,7,-1
 1044 0 l 1,8,-1
 733 0 l 1,9,-1
 696 0 l 1,10,-1
 696 1905 l 1,11,-1
 0 1905 l 1,0,-1
EndSplineSet
Validated: 1
EndChar

StartChar: l
Encoding: 108 108 74
Width: 2195
GlyphClass: 1
Flags: W
LayerCount: 2
Fore
SplineSet
1741 0 m 1,0,-1
 348 0 l 1,1,-1
 0 0 l 1,2,-1
 0 348 l 1,3,-1
 0 2253 l 1,4,-1
 348 2253 l 1,5,-1
 348 348 l 1,6,-1
 1741 348 l 1,7,-1
 1741 0 l 1,0,-1
EndSplineSet
Validated: 1
EndChar

StartChar: m
Encoding: 109 109 75
Width: 2195
GlyphClass: 1
Flags: W
LayerCount: 2
Fore
SplineSet
0 1905 m 1,0,-1
 0 2253 l 1,1,-1
 696 2253 l 1,2,-1
 1008 2253 l 1,3,-1
 1044 2253 l 1,4,-1
 1044 1300 l 1,5,-1
 1407 1300 l 1,6,-1
 1407 952 l 1,7,-1
 1044 952 l 1,8,-1
 1044 348 l 1,9,-1
 1741 348 l 1,10,-1
 1741 0 l 1,11,-1
 1044 0 l 1,12,-1
 733 0 l 1,13,-1
 696 0 l 1,14,-1
 696 952 l 1,15,-1
 334 952 l 1,16,-1
 334 1300 l 1,17,-1
 696 1300 l 1,18,-1
 696 1905 l 1,19,-1
 0 1905 l 1,0,-1
EndSplineSet
Validated: 1
EndChar

StartChar: n
Encoding: 110 110 76
Width: 2195
GlyphClass: 1
Flags: W
LayerCount: 2
Fore
SplineSet
1741 1905 m 1,0,-1
 1044 1905 l 1,1,-1
 1044 1300 l 1,2,-1
 1407 1300 l 1,3,-1
 1407 952 l 1,4,-1
 1044 952 l 1,5,-1
 1044 0 l 1,6,-1
 1008 0 l 1,7,-1
 696 0 l 1,8,-1
 0 0 l 1,9,-1
 0 348 l 1,10,-1
 696 348 l 1,11,-1
 696 952 l 1,12,-1
 334 952 l 1,13,-1
 334 1300 l 1,14,-1
 696 1300 l 1,15,-1
 696 2253 l 1,16,-1
 733 2253 l 1,17,-1
 1044 2253 l 1,18,-1
 1741 2253 l 1,19,-1
 1741 1905 l 1,0,-1
EndSplineSet
Validated: 1
EndChar

StartChar: o
Encoding: 111 111 77
Width: 2195
GlyphClass: 1
Flags: W
LayerCount: 2
Fore
SplineSet
1741 2253 m 1,0,-1
 1741 1905 l 1,1,-1
 1741 348 l 1,2,-1
 1741 0 l 1,3,-1
 1393 0 l 1,4,-1
 348 0 l 1,5,-1
 0 0 l 1,6,-1
 0 348 l 1,7,-1
 0 1905 l 1,8,-1
 0 2253 l 1,9,-1
 348 2253 l 1,10,-1
 1393 2253 l 1,11,-1
 1741 2253 l 1,0,-1
348 348 m 1,12,-1
 1393 348 l 1,13,-1
 1393 1905 l 1,14,-1
 348 1905 l 1,15,-1
 348 348 l 1,12,-1
EndSplineSet
Validated: 1
EndChar

StartChar: p
Encoding: 112 112 78
Width: 2195
GlyphClass: 1
Flags: W
LayerCount: 2
Fore
SplineSet
1741 2253 m 1,0,-1
 1741 1905 l 1,1,-1
 348 1905 l 1,2,-1
 348 1300 l 1,3,-1
 1741 1300 l 1,4,-1
 1741 952 l 1,5,-1
 1044 952 l 1,6,-1
 1044 0 l 1,7,-1
 696 0 l 1,8,-1
 696 952 l 1,9,-1
 0 952 l 1,10,-1
 0 1245 l 1,11,-1
 0 1300 l 1,12,-1
 0 1905 l 1,13,-1
 0 2253 l 1,14,-1
 348 2253 l 1,15,-1
 1741 2253 l 1,0,-1
EndSplineSet
Validated: 1
EndChar

StartChar: r
Encoding: 114 114 79
Width: 2195
GlyphClass: 1
Flags: W
LayerCount: 2
Fore
SplineSet
0 2253 m 1,0,-1
 1393 2253 l 1,1,-1
 1741 2253 l 1,2,-1
 1741 1905 l 1,3,-1
 1741 1300 l 1,4,-1
 1741 1245 l 1,5,-1
 1741 952 l 1,6,-1
 1044 952 l 1,7,-1
 1044 0 l 1,8,-1
 696 0 l 1,9,-1
 696 952 l 1,10,-1
 0 952 l 1,11,-1
 0 1300 l 1,12,-1
 1393 1300 l 1,13,-1
 1393 1905 l 1,14,-1
 0 1905 l 1,15,-1
 0 2253 l 1,0,-1
EndSplineSet
Validated: 1
EndChar

StartChar: s
Encoding: 115 115 80
Width: 2195
GlyphClass: 1
Flags: W
LayerCount: 2
Fore
SplineSet
1741 1905 m 1,0,-1
 0 1905 l 1,1,-1
 0 2253 l 1,2,-1
 1741 2253 l 1,3,-1
 1741 1905 l 1,0,-1
1741 0 m 1,4,-1
 348 0 l 1,5,-1
 0 0 l 1,6,-1
 0 348 l 1,7,-1
 0 952 l 1,8,-1
 0 1126 l 1,9,-1
 0 1300 l 1,10,-1
 1741 1300 l 1,11,-1
 1741 952 l 1,12,-1
 348 952 l 1,13,-1
 348 348 l 1,14,-1
 1741 348 l 1,15,-1
 1741 0 l 1,4,-1
EndSplineSet
Validated: 1
EndChar

StartChar: t
Encoding: 116 116 81
Width: 2187
GlyphClass: 1
Flags: W
LayerCount: 2
Fore
SplineSet
0 0 m 1,0,-1
 0 348 l 1,1,-1
 696 348 l 1,2,-1
 696 2253 l 1,3,-1
 1044 2253 l 1,4,-1
 1044 348 l 1,5,-1
 1741 348 l 1,6,-1
 1741 0 l 1,7,-1
 1044 0 l 1,8,-1
 696 0 l 1,9,-1
 0 0 l 1,0,-1
EndSplineSet
Validated: 1
EndChar

StartChar: u
Encoding: 117 117 82
Width: 2195
GlyphClass: 1
Flags: W
LayerCount: 2
Fore
SplineSet
1393 0 m 1,0,-1
 348 0 l 1,1,-1
 0 0 l 1,2,-1
 0 348 l 1,3,-1
 0 2253 l 1,4,-1
 348 2253 l 1,5,-1
 348 348 l 1,6,-1
 1393 348 l 1,7,-1
 1393 2253 l 1,8,-1
 1741 2253 l 1,9,-1
 1741 348 l 1,10,-1
 1741 0 l 1,11,-1
 1393 0 l 1,0,-1
EndSplineSet
Validated: 1
EndChar

StartChar: v
Encoding: 118 118 83
Width: 2195
GlyphClass: 1
Flags: W
LayerCount: 2
Fore
SplineSet
1741 1126 m 1,0,-1
 1741 889 l 1,1,-1
 1741 348 l 1,2,-1
 1741 0 l 1,3,-1
 1393 0 l 1,4,-1
 348 0 l 1,5,-1
 0 0 l 1,6,-1
 0 348 l 1,7,-1
 0 889 l 1,8,-1
 0 1126 l 1,9,-1
 0 1237 l 1,10,-1
 696 1237 l 1,11,-1
 696 2253 l 1,12,-1
 1044 2253 l 1,13,-1
 1044 1237 l 1,14,-1
 1741 1237 l 1,15,-1
 1741 1126 l 1,0,-1
1393 348 m 1,16,-1
 1393 889 l 1,17,-1
 348 889 l 1,18,-1
 348 348 l 1,19,-1
 1393 348 l 1,16,-1
EndSplineSet
Validated: 1
EndChar

StartChar: w
Encoding: 119 119 84
Width: 2195
GlyphClass: 1
Flags: W
LayerCount: 2
Fore
SplineSet
1741 1126 m 1,0,-1
 1741 1016 l 1,1,-1
 1044 1016 l 1,2,-1
 1044 0 l 1,3,-1
 696 0 l 1,4,-1
 696 1016 l 1,5,-1
 0 1016 l 1,6,-1
 0 1126 l 1,7,-1
 0 1366 l 1,8,-1
 0 1905 l 1,9,-1
 0 2253 l 1,10,-1
 348 2253 l 1,11,-1
 1393 2253 l 1,12,-1
 1741 2253 l 1,13,-1
 1741 1905 l 1,14,-1
 1741 1366 l 1,15,-1
 1741 1126 l 1,0,-1
1393 1905 m 1,16,-1
 348 1905 l 1,17,-1
 348 1366 l 1,18,-1
 1393 1366 l 1,19,-1
 1393 1905 l 1,16,-1
EndSplineSet
Validated: 1
EndChar

StartChar: x
Encoding: 120 120 85
Width: 2048
GlyphClass: 1
Flags: W
LayerCount: 2
Fore
SplineSet
1894 1470 m 1,0,-1
 1198 1470 l 1,1,-1
 1198 1035 l 1,2,-1
 1894 1035 l 1,3,-1
 1894 0 l 1,4,-1
 1546 0 l 1,5,-1
 1546 687 l 1,6,-1
 502 687 l 1,7,-1
 502 0 l 1,8,-1
 154 0 l 1,9,-1
 154 1035 l 1,10,-1
 850 1035 l 1,11,-1
 850 1470 l 1,12,-1
 154 1470 l 1,13,-1
 154 1818 l 1,14,-1
 850 1818 l 1,15,-1
 850 2253 l 1,16,-1
 1198 2253 l 1,17,-1
 1198 1818 l 1,18,-1
 1894 1818 l 1,19,-1
 1894 1470 l 1,0,-1
EndSplineSet
Validated: 1
EndChar

StartChar: y
Encoding: 121 121 86
Width: 2195
GlyphClass: 1
Flags: W
LayerCount: 2
Fore
SplineSet
1741 1126 m 1,0,-1
 1741 952 l 1,1,-1
 1741 0 l 1,2,-1
 1393 0 l 1,3,-1
 1393 952 l 1,4,-1
 0 952 l 1,5,-1
 0 1126 l 1,6,-1
 0 1300 l 1,7,-1
 0 2253 l 1,8,-1
 348 2253 l 1,9,-1
 348 1300 l 1,10,-1
 1393 1300 l 1,11,-1
 1393 2253 l 1,12,-1
 1741 2253 l 1,13,-1
 1741 1300 l 1,14,-1
 1741 1245 l 1,15,-1
 1741 1126 l 1,0,-1
EndSplineSet
Validated: 1
EndChar

StartChar: z
Encoding: 122 122 87
Width: 2195
GlyphClass: 1
Flags: W
LayerCount: 2
Fore
SplineSet
1741 1126 m 1,0,-1
 1741 952 l 1,1,-1
 1741 0 l 1,2,-1
 1393 0 l 1,3,-1
 1393 952 l 1,4,-1
 0 952 l 1,5,-1
 0 1126 l 1,6,-1
 0 1300 l 1,7,-1
 0 2253 l 1,8,-1
 348 2253 l 1,9,-1
 348 1300 l 1,10,-1
 1741 1300 l 1,11,-1
 1741 1126 l 1,0,-1
EndSplineSet
Validated: 1
EndChar

StartChar: braceleft
Encoding: 123 123 88
Width: 4375
GlyphClass: 1
Flags: W
LayerCount: 2
Fore
SplineSet
1981 2373 m 256,0,1
 1876 2373 1876 2373 1802 2448 c 0,2,3
 1727 2523 1727 2523 1727 2628 c 256,4,5
 1727 2733 1727 2733 1802 2808 c 0,6,7
 1876 2882 1876 2882 1981 2882 c 0,8,9
 2085 2882 2085 2882 2161 2808 c 0,10,11
 2236 2733 2236 2733 2236 2628 c 256,12,13
 2236 2523 2236 2523 2161 2448 c 128,-1,14
 2086 2373 2086 2373 1981 2373 c 256,0,1
3000 -210 m 1,15,-1
 3349 -210 l 1,16,-1
 3349 -779 l 1,17,-1
 3000 -779 l 1,18,-1
 3000 -778 l 1,19,-1
 966 -778 l 1,20,-1
 966 -779 l 1,21,-1
 617 -779 l 1,22,-1
 617 -210 l 1,23,-1
 966 -210 l 1,24,-1
 966 -430 l 1,25,-1
 3000 -430 l 1,26,-1
 3000 -210 l 1,15,-1
3577 2282 m 1,27,-1
 3926 2282 l 1,28,-1
 3926 1933 l 1,29,-1
 3926 29 l 1,30,-1
 3577 29 l 1,31,-1
 3577 1933 l 1,32,-1
 2533 1933 l 1,33,-1
 2533 29 l 1,34,-1
 2185 29 l 1,35,-1
 2185 1933 l 1,36,-1
 2185 2282 l 1,37,-1
 2533 2282 l 1,38,-1
 3577 2282 l 1,27,-1
1789 2282 m 1,39,-1
 1789 1933 l 1,40,-1
 1789 378 l 1,41,-1
 1789 29 l 1,42,-1
 1441 29 l 1,43,-1
 398 29 l 1,44,-1
 49 29 l 1,45,-1
 49 378 l 1,46,-1
 49 1933 l 1,47,-1
 49 2282 l 1,48,-1
 398 2282 l 1,49,-1
 1441 2282 l 1,50,-1
 1789 2282 l 1,39,-1
398 378 m 1,51,-1
 1441 378 l 1,52,-1
 1441 1933 l 1,53,-1
 398 1933 l 1,54,-1
 398 378 l 1,51,-1
EndSplineSet
Validated: 1
EndChar

StartChar: periodcentered
Encoding: 183 183 89
Width: 2199
GlyphClass: 1
Flags: W
LayerCount: 2
Fore
SplineSet
1392 2253 m 1,0,-1
 1741 2253 l 1,1,-1
 1741 1904 l 1,2,-1
 1741 0 l 1,3,-1
 1392 0 l 1,4,-1
 1392 1904 l 1,5,-1
 349 1904 l 1,6,-1
 349 0 l 1,7,-1
 0 0 l 1,8,-1
 0 1904 l 1,9,-1
 0 2253 l 1,10,-1
 349 2253 l 1,11,-1
 1392 2253 l 1,0,-1
870 2373 m 256,12,13
 765 2373 765 2373 690 2448 c 0,14,15
 616 2524 616 2524 616 2628 c 128,-1,16
 616 2732 616 2732 690 2808 c 0,17,18
 766 2882 766 2882 870 2882 c 128,-1,19
 974 2882 974 2882 1050 2808 c 0,20,21
 1125 2733 1125 2733 1125 2628 c 256,22,23
 1125 2523 1125 2523 1050 2448 c 128,-1,24
 975 2373 975 2373 870 2373 c 256,12,13
EndSplineSet
Validated: 1
EndChar

StartChar: Agrave
Encoding: 192 192 90
Width: 2199
GlyphClass: 1
Flags: W
LayerCount: 2
Fore
SplineSet
1392 2253 m 1,0,-1
 1741 2253 l 1,1,-1
 1741 1904 l 1,2,-1
 1741 0 l 1,3,-1
 1392 0 l 1,4,-1
 1392 1904 l 1,5,-1
 349 1904 l 1,6,-1
 349 0 l 1,7,-1
 0 0 l 1,8,-1
 0 1904 l 1,9,-1
 0 2253 l 1,10,-1
 349 2253 l 1,11,-1
 1392 2253 l 1,0,-1
870 872 m 256,12,13
 765 872 765 872 690.5 946.5 c 128,-1,14
 616 1021 616 1021 616 1126 c 256,15,16
 616 1231 616 1231 690.5 1306 c 128,-1,17
 765 1381 765 1381 870 1381 c 256,18,19
 975 1381 975 1381 1050 1306 c 128,-1,20
 1125 1231 1125 1231 1125 1126 c 256,21,22
 1125 1021 1125 1021 1050 946.5 c 128,-1,23
 975 872 975 872 870 872 c 256,12,13
870 2373 m 256,24,25
 765 2373 765 2373 690.5 2448 c 128,-1,26
 616 2523 616 2523 616 2628 c 256,27,28
 616 2733 616 2733 690.5 2807.5 c 128,-1,29
 765 2882 765 2882 870 2882 c 256,30,31
 975 2882 975 2882 1050 2807.5 c 128,-1,32
 1125 2733 1125 2733 1125 2628 c 256,33,34
 1125 2523 1125 2523 1050 2448 c 128,-1,35
 975 2373 975 2373 870 2373 c 256,24,25
EndSplineSet
Validated: 1
EndChar

StartChar: Aacute
Encoding: 193 193 91
Width: 2199
GlyphClass: 1
Flags: W
LayerCount: 2
Fore
SplineSet
1392 2253 m 1,0,-1
 1741 2253 l 1,1,-1
 1741 1904 l 1,2,-1
 1741 0 l 1,3,-1
 1392 0 l 1,4,-1
 1392 1904 l 1,5,-1
 349 1904 l 1,6,-1
 349 0 l 1,7,-1
 0 0 l 1,8,-1
 0 1904 l 1,9,-1
 0 2253 l 1,10,-1
 349 2253 l 1,11,-1
 1392 2253 l 1,0,-1
870 2373 m 256,12,13
 765 2373 765 2373 690.5 2448 c 128,-1,14
 616 2523 616 2523 616 2628 c 256,15,16
 616 2733 616 2733 690.5 2807.5 c 128,-1,17
 765 2882 765 2882 870 2882 c 256,18,19
 975 2882 975 2882 1050 2807.5 c 128,-1,20
 1125 2733 1125 2733 1125 2628 c 256,21,22
 1125 2523 1125 2523 1050 2448 c 128,-1,23
 975 2373 975 2373 870 2373 c 256,12,13
EndSplineSet
Validated: 1
EndChar

StartChar: Acircumflex
Encoding: 194 194 92
Width: 4392
GlyphClass: 1
Flags: W
LayerCount: 2
Fore
SplineSet
1988 2402 m 256,0,1
 1883 2402 1883 2402 1808.5 2477 c 128,-1,2
 1734 2552 1734 2552 1734 2657 c 256,3,4
 1734 2762 1734 2762 1808.5 2836.5 c 128,-1,5
 1883 2911 1883 2911 1988 2911 c 256,6,7
 2093 2911 2093 2911 2168 2836.5 c 128,-1,8
 2243 2762 2243 2762 2243 2657 c 256,9,10
 2243 2552 2243 2552 2168 2477 c 128,-1,11
 2093 2402 2093 2402 1988 2402 c 256,0,1
2968 -239 m 1,12,-1
 3317 -239 l 1,13,-1
 3317 -808 l 1,14,-1
 2968 -808 l 1,15,-1
 2968 -807 l 1,16,-1
 934 -807 l 1,17,-1
 934 -808 l 1,18,-1
 585 -808 l 1,19,-1
 585 -239 l 1,20,-1
 934 -239 l 1,21,-1
 934 -459 l 1,22,-1
 2968 -459 l 1,23,-1
 2968 -239 l 1,12,-1
1409 2253 m 1,24,-1
 1757 2253 l 1,25,-1
 1757 1904 l 1,26,-1
 1757 0 l 1,27,-1
 1409 0 l 1,28,-1
 1409 1904 l 1,29,-1
 366 1904 l 1,30,-1
 366 0 l 1,31,-1
 17 0 l 1,32,-1
 17 1904 l 1,33,-1
 17 2253 l 1,34,-1
 366 2253 l 1,35,-1
 1409 2253 l 1,24,-1
3536 0 m 1,36,-1
 2492 0 l 1,37,-1
 2144 0 l 1,38,-1
 2144 349 l 1,39,-1
 2144 2253 l 1,40,-1
 2492 2253 l 1,41,-1
 2492 349 l 1,42,-1
 3536 349 l 1,43,-1
 3536 2253 l 1,44,-1
 3884 2253 l 1,45,-1
 3884 349 l 1,46,-1
 3884 0 l 1,47,-1
 3536 0 l 1,36,-1
EndSplineSet
Validated: 1
EndChar

StartChar: Atilde
Encoding: 195 195 93
Width: 4368
GlyphClass: 1
Flags: W
LayerCount: 2
Fore
SplineSet
1988 2402 m 256,0,1
 1883 2402 1883 2402 1808.5 2477 c 128,-1,2
 1734 2552 1734 2552 1734 2657 c 256,3,4
 1734 2762 1734 2762 1808.5 2836.5 c 128,-1,5
 1883 2911 1883 2911 1988 2911 c 256,6,7
 2093 2911 2093 2911 2168 2836.5 c 128,-1,8
 2243 2762 2243 2762 2243 2657 c 256,9,10
 2243 2552 2243 2552 2168 2477 c 128,-1,11
 2093 2402 2093 2402 1988 2402 c 256,0,1
3006 -210 m 1,12,-1
 3355 -210 l 1,13,-1
 3355 -779 l 1,14,-1
 3006 -779 l 1,15,-1
 3006 -778 l 1,16,-1
 972 -778 l 1,17,-1
 972 -779 l 1,18,-1
 623 -779 l 1,19,-1
 623 -210 l 1,20,-1
 972 -210 l 1,21,-1
 972 -430 l 1,22,-1
 3006 -430 l 1,23,-1
 3006 -210 l 1,12,-1
1447 2282 m 1,24,-1
 1795 2282 l 1,25,-1
 1795 1933 l 1,26,-1
 1795 29 l 1,27,-1
 1447 29 l 1,28,-1
 1447 1933 l 1,29,-1
 404 1933 l 1,30,-1
 404 29 l 1,31,-1
 55 29 l 1,32,-1
 55 1933 l 1,33,-1
 55 2282 l 1,34,-1
 404 2282 l 1,35,-1
 1447 2282 l 1,24,-1
3922 2282 m 1,36,-1
 3922 1933 l 1,37,-1
 3922 378 l 1,38,-1
 3922 29 l 1,39,-1
 3574 29 l 1,40,-1
 2182 29 l 1,41,-1
 2182 378 l 1,42,-1
 3574 378 l 1,43,-1
 3574 1933 l 1,44,-1
 2182 1933 l 1,45,-1
 2182 2282 l 1,46,-1
 3574 2282 l 1,47,-1
 3922 2282 l 1,36,-1
EndSplineSet
Validated: 1
EndChar

StartChar: Adieresis
Encoding: 196 196 94
Width: 2195
GlyphClass: 1
Flags: W
LayerCount: 2
Fore
SplineSet
870 872 m 0,0,1
 764 872 764 872 690 946 c 128,-1,2
 616 1020 616 1020 616 1126 c 0,3,4
 616 1233 616 1233 690 1307 c 0,5,6
 763 1380 763 1380 870 1380 c 0,7,8
 978 1380 978 1380 1051 1307 c 128,-1,9
 1124 1234 1124 1234 1124 1126 c 0,10,11
 1124 1019 1124 1019 1051 946 c 0,12,13
 977 872 977 872 870 872 c 0,0,1
1393 2253 m 1,14,-1
 1741 2253 l 1,15,-1
 1741 1905 l 1,16,-1
 1741 0 l 1,17,-1
 1393 0 l 1,18,-1
 1393 1905 l 1,19,-1
 348 1905 l 1,20,-1
 348 0 l 1,21,-1
 0 0 l 1,22,-1
 0 1905 l 1,23,-1
 0 2253 l 1,24,-1
 348 2253 l 1,25,-1
 1393 2253 l 1,14,-1
EndSplineSet
Validated: 1
EndChar

StartChar: Egrave
Encoding: 200 200 95
Width: 2199
GlyphClass: 1
Flags: W
LayerCount: 2
Fore
SplineSet
870 2373 m 256,0,1
 765 2373 765 2373 690.5 2448 c 128,-1,2
 616 2523 616 2523 616 2628 c 256,3,4
 616 2733 616 2733 690.5 2807.5 c 128,-1,5
 765 2882 765 2882 870 2882 c 256,6,7
 975 2882 975 2882 1050 2807.5 c 128,-1,8
 1125 2733 1125 2733 1125 2628 c 256,9,10
 1125 2523 1125 2523 1050 2448 c 128,-1,11
 975 2373 975 2373 870 2373 c 256,0,1
870 872 m 256,12,13
 765 872 765 872 690.5 946.5 c 128,-1,14
 616 1021 616 1021 616 1126 c 256,15,16
 616 1231 616 1231 690.5 1306 c 128,-1,17
 765 1381 765 1381 870 1381 c 256,18,19
 975 1381 975 1381 1050 1306 c 128,-1,20
 1125 1231 1125 1231 1125 1126 c 256,21,22
 1125 1021 1125 1021 1050 946.5 c 128,-1,23
 975 872 975 872 870 872 c 256,12,13
0 0 m 1,24,-1
 0 349 l 1,25,-1
 0 1904 l 1,26,-1
 0 2253 l 1,27,-1
 349 2253 l 1,28,-1
 1741 2253 l 1,29,-1
 1741 1904 l 1,30,-1
 349 1904 l 1,31,-1
 349 349 l 1,32,-1
 1741 349 l 1,33,-1
 1741 0 l 1,34,-1
 349 0 l 1,35,-1
 0 0 l 1,24,-1
EndSplineSet
Validated: 1
EndChar

StartChar: Eacute
Encoding: 201 201 96
Width: 2199
GlyphClass: 1
Flags: W
LayerCount: 2
Fore
SplineSet
870 2373 m 256,0,1
 765 2373 765 2373 690.5 2448 c 128,-1,2
 616 2523 616 2523 616 2628 c 256,3,4
 616 2733 616 2733 690.5 2807.5 c 128,-1,5
 765 2882 765 2882 870 2882 c 256,6,7
 975 2882 975 2882 1050 2807.5 c 128,-1,8
 1125 2733 1125 2733 1125 2628 c 256,9,10
 1125 2523 1125 2523 1050 2448 c 128,-1,11
 975 2373 975 2373 870 2373 c 256,0,1
0 0 m 1,12,-1
 0 349 l 1,13,-1
 0 1904 l 1,14,-1
 0 2253 l 1,15,-1
 349 2253 l 1,16,-1
 1741 2253 l 1,17,-1
 1741 1904 l 1,18,-1
 349 1904 l 1,19,-1
 349 349 l 1,20,-1
 1741 349 l 1,21,-1
 1741 0 l 1,22,-1
 349 0 l 1,23,-1
 0 0 l 1,12,-1
EndSplineSet
Validated: 1
EndChar

StartChar: Edieresis
Encoding: 203 203 97
Width: 2195
GlyphClass: 1
Flags: W
LayerCount: 2
Fore
SplineSet
870 872 m 0,0,1
 764 872 764 872 690 946 c 128,-1,2
 616 1020 616 1020 616 1126 c 0,3,4
 616 1233 616 1233 690 1307 c 0,5,6
 763 1380 763 1380 870 1380 c 0,7,8
 978 1380 978 1380 1051 1307 c 128,-1,9
 1124 1234 1124 1234 1124 1126 c 0,10,11
 1124 1019 1124 1019 1051 946 c 0,12,13
 977 872 977 872 870 872 c 0,0,1
0 0 m 1,14,-1
 0 348 l 1,15,-1
 0 1905 l 1,16,-1
 0 2253 l 1,17,-1
 348 2253 l 1,18,-1
 1741 2253 l 1,19,-1
 1741 1905 l 1,20,-1
 348 1905 l 1,21,-1
 348 348 l 1,22,-1
 1741 348 l 1,23,-1
 1741 0 l 1,24,-1
 348 0 l 1,25,-1
 0 0 l 1,14,-1
EndSplineSet
Validated: 1
EndChar

StartChar: Igrave
Encoding: 204 204 98
Width: 2199
GlyphClass: 1
Flags: W
LayerCount: 2
Fore
SplineSet
870 2373 m 256,0,1
 765 2373 765 2373 690.5 2448 c 128,-1,2
 616 2523 616 2523 616 2628 c 256,3,4
 616 2733 616 2733 690.5 2807.5 c 128,-1,5
 765 2882 765 2882 870 2882 c 256,6,7
 975 2882 975 2882 1050 2807.5 c 128,-1,8
 1125 2733 1125 2733 1125 2628 c 256,9,10
 1125 2523 1125 2523 1050 2448 c 128,-1,11
 975 2373 975 2373 870 2373 c 256,0,1
1741 2253 m 1,12,-1
 1741 1904 l 1,13,-1
 1741 349 l 1,14,-1
 1741 0 l 1,15,-1
 1392 0 l 1,16,-1
 0 0 l 1,17,-1
 0 349 l 1,18,-1
 1392 349 l 1,19,-1
 1392 1904 l 1,20,-1
 0 1904 l 1,21,-1
 0 2253 l 1,22,-1
 1392 2253 l 1,23,-1
 1741 2253 l 1,12,-1
870 872 m 256,24,25
 765 872 765 872 690.5 946.5 c 128,-1,26
 616 1021 616 1021 616 1126 c 256,27,28
 616 1231 616 1231 690.5 1306 c 128,-1,29
 765 1381 765 1381 870 1381 c 256,30,31
 975 1381 975 1381 1050 1306 c 128,-1,32
 1125 1231 1125 1231 1125 1126 c 256,33,34
 1125 1021 1125 1021 1050 946.5 c 128,-1,35
 975 872 975 872 870 872 c 256,24,25
EndSplineSet
Validated: 1
EndChar

StartChar: Iacute
Encoding: 205 205 99
Width: 2199
GlyphClass: 1
Flags: W
LayerCount: 2
Fore
SplineSet
870 2373 m 256,0,1
 765 2373 765 2373 690.5 2448 c 128,-1,2
 616 2523 616 2523 616 2628 c 256,3,4
 616 2733 616 2733 690.5 2807.5 c 128,-1,5
 765 2882 765 2882 870 2882 c 256,6,7
 975 2882 975 2882 1050 2807.5 c 128,-1,8
 1125 2733 1125 2733 1125 2628 c 256,9,10
 1125 2523 1125 2523 1050 2448 c 128,-1,11
 975 2373 975 2373 870 2373 c 256,0,1
1741 2253 m 1,12,-1
 1741 1904 l 1,13,-1
 1741 349 l 1,14,-1
 1741 0 l 1,15,-1
 1392 0 l 1,16,-1
 0 0 l 1,17,-1
 0 349 l 1,18,-1
 1392 349 l 1,19,-1
 1392 1904 l 1,20,-1
 0 1904 l 1,21,-1
 0 2253 l 1,22,-1
 1392 2253 l 1,23,-1
 1741 2253 l 1,12,-1
EndSplineSet
Validated: 1
EndChar

StartChar: Icircumflex
Encoding: 206 206 100
Width: 4368
GlyphClass: 1
Flags: W
LayerCount: 2
Fore
SplineSet
1973 2388 m 256,0,1
 1868 2388 1868 2388 1793.5 2463 c 128,-1,2
 1719 2538 1719 2538 1719 2643 c 256,3,4
 1719 2748 1719 2748 1793.5 2822.5 c 128,-1,5
 1868 2897 1868 2897 1973 2897 c 256,6,7
 2078 2897 2078 2897 2153 2822.5 c 128,-1,8
 2228 2748 2228 2748 2228 2643 c 256,9,10
 2228 2538 2228 2538 2153 2463 c 128,-1,11
 2078 2388 2078 2388 1973 2388 c 256,0,1
2991 -224 m 1,12,-1
 3340 -224 l 1,13,-1
 3340 -793 l 1,14,-1
 2991 -793 l 1,15,-1
 2991 -792 l 1,16,-1
 957 -792 l 1,17,-1
 957 -793 l 1,18,-1
 608 -793 l 1,19,-1
 608 -224 l 1,20,-1
 957 -224 l 1,21,-1
 957 -444 l 1,22,-1
 2991 -444 l 1,23,-1
 2991 -224 l 1,12,-1
3559 15 m 1,24,-1
 2515 15 l 1,25,-1
 2167 15 l 1,26,-1
 2167 364 l 1,27,-1
 2167 2268 l 1,28,-1
 2515 2268 l 1,29,-1
 2515 364 l 1,30,-1
 3559 364 l 1,31,-1
 3559 2268 l 1,32,-1
 3908 2268 l 1,33,-1
 3908 364 l 1,34,-1
 3908 15 l 1,35,-1
 3559 15 l 1,24,-1
1780 2268 m 1,36,-1
 1780 1919 l 1,37,-1
 1780 364 l 1,38,-1
 1780 15 l 1,39,-1
 1432 15 l 1,40,-1
 40 15 l 1,41,-1
 40 364 l 1,42,-1
 1432 364 l 1,43,-1
 1432 1919 l 1,44,-1
 40 1919 l 1,45,-1
 40 2268 l 1,46,-1
 1432 2268 l 1,47,-1
 1780 2268 l 1,36,-1
EndSplineSet
Validated: 1
EndChar

StartChar: Idieresis
Encoding: 207 207 101
Width: 2195
GlyphClass: 1
Flags: W
LayerCount: 2
Fore
SplineSet
1741 2253 m 1,0,-1
 1741 1905 l 1,1,-1
 1741 348 l 1,2,-1
 1741 0 l 1,3,-1
 1393 0 l 1,4,-1
 0 0 l 1,5,-1
 0 348 l 1,6,-1
 1393 348 l 1,7,-1
 1393 1905 l 1,8,-1
 0 1905 l 1,9,-1
 0 2253 l 1,10,-1
 1393 2253 l 1,11,-1
 1741 2253 l 1,0,-1
870 872 m 0,12,13
 764 872 764 872 690 946 c 128,-1,14
 616 1020 616 1020 616 1126 c 0,15,16
 616 1233 616 1233 690 1307 c 0,17,18
 763 1380 763 1380 870 1380 c 0,19,20
 978 1380 978 1380 1051 1307 c 128,-1,21
 1124 1234 1124 1234 1124 1126 c 0,22,23
 1124 1019 1124 1019 1051 946 c 0,24,25
 977 872 977 872 870 872 c 0,12,13
EndSplineSet
Validated: 1
EndChar

StartChar: Ocircumflex
Encoding: 212 212 102
Width: 4353
GlyphClass: 1
Flags: W
LayerCount: 2
Fore
SplineSet
1973 2402 m 256,0,1
 1868 2402 1868 2402 1793.5 2477 c 128,-1,2
 1719 2552 1719 2552 1719 2657 c 256,3,4
 1719 2762 1719 2762 1793.5 2836.5 c 128,-1,5
 1868 2911 1868 2911 1973 2911 c 256,6,7
 2078 2911 2078 2911 2153 2836.5 c 128,-1,8
 2228 2762 2228 2762 2228 2657 c 256,9,10
 2228 2552 2228 2552 2153 2477 c 128,-1,11
 2078 2402 2078 2402 1973 2402 c 256,0,1
2991 -210 m 1,12,-1
 3340 -210 l 1,13,-1
 3340 -779 l 1,14,-1
 2991 -779 l 1,15,-1
 2991 -778 l 1,16,-1
 957 -778 l 1,17,-1
 957 -779 l 1,18,-1
 608 -779 l 1,19,-1
 608 -210 l 1,20,-1
 957 -210 l 1,21,-1
 957 -430 l 1,22,-1
 2991 -430 l 1,23,-1
 2991 -210 l 1,12,-1
3907 2282 m 1,24,-1
 3907 1933 l 1,25,-1
 3907 378 l 1,26,-1
 3907 29 l 1,27,-1
 3559 29 l 1,28,-1
 2167 29 l 1,29,-1
 2167 378 l 1,30,-1
 3559 378 l 1,31,-1
 3559 1933 l 1,32,-1
 2167 1933 l 1,33,-1
 2167 2282 l 1,34,-1
 3559 2282 l 1,35,-1
 3907 2282 l 1,24,-1
1780 2282 m 1,36,-1
 1780 1933 l 1,37,-1
 1780 378 l 1,38,-1
 1780 29 l 1,39,-1
 1432 29 l 1,40,-1
 389 29 l 1,41,-1
 40 29 l 1,42,-1
 40 378 l 1,43,-1
 40 1933 l 1,44,-1
 40 2282 l 1,45,-1
 389 2282 l 1,46,-1
 1432 2282 l 1,47,-1
 1780 2282 l 1,36,-1
389 378 m 1,48,-1
 1432 378 l 1,49,-1
 1432 1933 l 1,50,-1
 389 1933 l 1,51,-1
 389 378 l 1,48,-1
EndSplineSet
Validated: 1
EndChar

StartChar: Otilde
Encoding: 213 213 103
Width: 4353
GlyphClass: 1
Flags: W
LayerCount: 2
Fore
SplineSet
1973 2388 m 256,0,1
 1868 2388 1868 2388 1793.5 2463 c 128,-1,2
 1719 2538 1719 2538 1719 2643 c 256,3,4
 1719 2748 1719 2748 1793.5 2822.5 c 128,-1,5
 1868 2897 1868 2897 1973 2897 c 256,6,7
 2078 2897 2078 2897 2153 2822.5 c 128,-1,8
 2228 2748 2228 2748 2228 2643 c 256,9,10
 2228 2538 2228 2538 2153 2463 c 128,-1,11
 2078 2388 2078 2388 1973 2388 c 256,0,1
2991 -224 m 1,12,-1
 3340 -224 l 1,13,-1
 3340 -793 l 1,14,-1
 2991 -793 l 1,15,-1
 2991 -792 l 1,16,-1
 957 -792 l 1,17,-1
 957 -793 l 1,18,-1
 608 -793 l 1,19,-1
 608 -224 l 1,20,-1
 957 -224 l 1,21,-1
 957 -444 l 1,22,-1
 2991 -444 l 1,23,-1
 2991 -224 l 1,12,-1
3568 2268 m 1,24,-1
 3917 2268 l 1,25,-1
 3917 1919 l 1,26,-1
 3917 15 l 1,27,-1
 3568 15 l 1,28,-1
 3568 1919 l 1,29,-1
 2524 1919 l 1,30,-1
 2524 15 l 1,31,-1
 2176 15 l 1,32,-1
 2176 1919 l 1,33,-1
 2176 2268 l 1,34,-1
 2524 2268 l 1,35,-1
 3568 2268 l 1,24,-1
1780 2268 m 1,36,-1
 1780 1919 l 1,37,-1
 1780 364 l 1,38,-1
 1780 15 l 1,39,-1
 1432 15 l 1,40,-1
 389 15 l 1,41,-1
 40 15 l 1,42,-1
 40 364 l 1,43,-1
 40 1919 l 1,44,-1
 40 2268 l 1,45,-1
 389 2268 l 1,46,-1
 1432 2268 l 1,47,-1
 1780 2268 l 1,36,-1
389 364 m 1,48,-1
 1432 364 l 1,49,-1
 1432 1919 l 1,50,-1
 389 1919 l 1,51,-1
 389 364 l 1,48,-1
EndSplineSet
Validated: 1
EndChar

StartChar: Ugrave
Encoding: 217 217 104
Width: 2199
GlyphClass: 1
Flags: W
LayerCount: 2
Fore
SplineSet
870 2373 m 256,0,1
 765 2373 765 2373 690.5 2448 c 128,-1,2
 616 2523 616 2523 616 2628 c 256,3,4
 616 2733 616 2733 690.5 2807.5 c 128,-1,5
 765 2882 765 2882 870 2882 c 256,6,7
 975 2882 975 2882 1050 2807.5 c 128,-1,8
 1125 2733 1125 2733 1125 2628 c 256,9,10
 1125 2523 1125 2523 1050 2448 c 128,-1,11
 975 2373 975 2373 870 2373 c 256,0,1
870 872 m 256,12,13
 765 872 765 872 690.5 946.5 c 128,-1,14
 616 1021 616 1021 616 1126 c 256,15,16
 616 1231 616 1231 690.5 1306 c 128,-1,17
 765 1381 765 1381 870 1381 c 256,18,19
 975 1381 975 1381 1050 1306 c 128,-1,20
 1125 1231 1125 1231 1125 1126 c 256,21,22
 1125 1021 1125 1021 1050 946.5 c 128,-1,23
 975 872 975 872 870 872 c 256,12,13
1392 0 m 1,24,-1
 349 0 l 1,25,-1
 0 0 l 1,26,-1
 0 349 l 1,27,-1
 0 2253 l 1,28,-1
 349 2253 l 1,29,-1
 349 349 l 1,30,-1
 1392 349 l 1,31,-1
 1392 2253 l 1,32,-1
 1741 2253 l 1,33,-1
 1741 349 l 1,34,-1
 1741 0 l 1,35,-1
 1392 0 l 1,24,-1
EndSplineSet
Validated: 1
EndChar

StartChar: Uacute
Encoding: 218 218 105
Width: 2199
GlyphClass: 1
Flags: W
LayerCount: 2
Fore
SplineSet
870 2373 m 256,0,1
 765 2373 765 2373 690.5 2448 c 128,-1,2
 616 2523 616 2523 616 2628 c 256,3,4
 616 2733 616 2733 690.5 2807.5 c 128,-1,5
 765 2882 765 2882 870 2882 c 256,6,7
 975 2882 975 2882 1050 2807.5 c 128,-1,8
 1125 2733 1125 2733 1125 2628 c 256,9,10
 1125 2523 1125 2523 1050 2448 c 128,-1,11
 975 2373 975 2373 870 2373 c 256,0,1
1392 0 m 1,12,-1
 349 0 l 1,13,-1
 0 0 l 1,14,-1
 0 349 l 1,15,-1
 0 2253 l 1,16,-1
 349 2253 l 1,17,-1
 349 349 l 1,18,-1
 1392 349 l 1,19,-1
 1392 2253 l 1,20,-1
 1741 2253 l 1,21,-1
 1741 349 l 1,22,-1
 1741 0 l 1,23,-1
 1392 0 l 1,12,-1
EndSplineSet
Validated: 1
EndChar

StartChar: Ucircumflex
Encoding: 219 219 106
Width: 2048
GlyphClass: 1
Flags: W
LayerCount: 2
Fore
SplineSet
870 2373 m 260,0,1
 765 2373 765 2373 690.5 2448 c 132,-1,2
 616 2523 616 2523 616 2628 c 260,3,4
 616 2733 616 2733 690.5 2807.5 c 132,-1,5
 765 2882 765 2882 870 2882 c 260,6,7
 975 2882 975 2882 1050 2807.5 c 132,-1,8
 1125 2733 1125 2733 1125 2628 c 260,9,10
 1125 2523 1125 2523 1050 2448 c 132,-1,11
 975 2373 975 2373 870 2373 c 260,0,1
1198 1301 m 1,12,-1
 1894 1301 l 1,13,-1
 1894 952 l 1,14,-1
 1198 952 l 1,15,-1
 1198 0 l 1,16,-1
 154 0 l 1,17,-1
 154 348 l 1,18,-1
 850 348 l 1,19,-1
 850 1905 l 1,20,-1
 154 1905 l 1,21,-1
 154 2253 l 1,22,-1
 1198 2253 l 1,23,-1
 1198 1301 l 1,12,-1
EndSplineSet
EndChar

StartChar: Udieresis
Encoding: 220 220 107
Width: 2195
GlyphClass: 1
Flags: W
LayerCount: 2
Fore
SplineSet
870 872 m 0,0,1
 764 872 764 872 690 946 c 128,-1,2
 616 1020 616 1020 616 1126 c 0,3,4
 616 1233 616 1233 690 1307 c 0,5,6
 763 1380 763 1380 870 1380 c 0,7,8
 978 1380 978 1380 1051 1307 c 128,-1,9
 1124 1234 1124 1234 1124 1126 c 0,10,11
 1124 1019 1124 1019 1051 946 c 0,12,13
 977 872 977 872 870 872 c 0,0,1
1393 0 m 1,14,-1
 348 0 l 1,15,-1
 0 0 l 1,16,-1
 0 348 l 1,17,-1
 0 2253 l 1,18,-1
 348 2253 l 1,19,-1
 348 348 l 1,20,-1
 1393 348 l 1,21,-1
 1393 2253 l 1,22,-1
 1741 2253 l 1,23,-1
 1741 348 l 1,24,-1
 1741 0 l 1,25,-1
 1393 0 l 1,14,-1
EndSplineSet
Validated: 1
EndChar

StartChar: agrave
Encoding: 224 224 108
Width: 2199
GlyphClass: 1
Flags: W
LayerCount: 2
Fore
SplineSet
1392 2253 m 1,0,-1
 1741 2253 l 1,1,-1
 1741 1904 l 1,2,-1
 1741 0 l 1,3,-1
 1392 0 l 1,4,-1
 1392 1904 l 1,5,-1
 349 1904 l 1,6,-1
 349 0 l 1,7,-1
 0 0 l 1,8,-1
 0 1904 l 1,9,-1
 0 2253 l 1,10,-1
 349 2253 l 1,11,-1
 1392 2253 l 1,0,-1
870 872 m 256,12,13
 765 872 765 872 690.5 946.5 c 128,-1,14
 616 1021 616 1021 616 1126 c 256,15,16
 616 1231 616 1231 690.5 1306 c 128,-1,17
 765 1381 765 1381 870 1381 c 256,18,19
 975 1381 975 1381 1050 1306 c 128,-1,20
 1125 1231 1125 1231 1125 1126 c 256,21,22
 1125 1021 1125 1021 1050 946.5 c 128,-1,23
 975 872 975 872 870 872 c 256,12,13
870 2373 m 256,24,25
 765 2373 765 2373 690.5 2448 c 128,-1,26
 616 2523 616 2523 616 2628 c 256,27,28
 616 2733 616 2733 690.5 2807.5 c 128,-1,29
 765 2882 765 2882 870 2882 c 256,30,31
 975 2882 975 2882 1050 2807.5 c 128,-1,32
 1125 2733 1125 2733 1125 2628 c 256,33,34
 1125 2523 1125 2523 1050 2448 c 128,-1,35
 975 2373 975 2373 870 2373 c 256,24,25
EndSplineSet
Validated: 1
EndChar

StartChar: aacute
Encoding: 225 225 109
Width: 2199
GlyphClass: 1
Flags: W
LayerCount: 2
Fore
SplineSet
1392 2253 m 1,0,-1
 1741 2253 l 1,1,-1
 1741 1904 l 1,2,-1
 1741 0 l 1,3,-1
 1392 0 l 1,4,-1
 1392 1904 l 1,5,-1
 349 1904 l 1,6,-1
 349 0 l 1,7,-1
 0 0 l 1,8,-1
 0 1904 l 1,9,-1
 0 2253 l 1,10,-1
 349 2253 l 1,11,-1
 1392 2253 l 1,0,-1
870 2373 m 256,12,13
 765 2373 765 2373 690.5 2448 c 128,-1,14
 616 2523 616 2523 616 2628 c 256,15,16
 616 2733 616 2733 690.5 2807.5 c 128,-1,17
 765 2882 765 2882 870 2882 c 256,18,19
 975 2882 975 2882 1050 2807.5 c 128,-1,20
 1125 2733 1125 2733 1125 2628 c 256,21,22
 1125 2523 1125 2523 1050 2448 c 128,-1,23
 975 2373 975 2373 870 2373 c 256,12,13
EndSplineSet
Validated: 1
EndChar

StartChar: acircumflex
Encoding: 226 226 110
Width: 4392
GlyphClass: 1
Flags: W
LayerCount: 2
Fore
SplineSet
2968 -239 m 1,0,-1
 3317 -239 l 1,1,-1
 3317 -808 l 1,2,-1
 2968 -808 l 1,3,-1
 2968 -807 l 1,4,-1
 934 -807 l 1,5,-1
 934 -808 l 1,6,-1
 585 -808 l 1,7,-1
 585 -239 l 1,8,-1
 934 -239 l 1,9,-1
 934 -459 l 1,10,-1
 2968 -459 l 1,11,-1
 2968 -239 l 1,0,-1
1409 2253 m 1,12,-1
 1757 2253 l 1,13,-1
 1757 1904 l 1,14,-1
 1757 0 l 1,15,-1
 1409 0 l 1,16,-1
 1409 1904 l 1,17,-1
 366 1904 l 1,18,-1
 366 0 l 1,19,-1
 17 0 l 1,20,-1
 17 1904 l 1,21,-1
 17 2253 l 1,22,-1
 366 2253 l 1,23,-1
 1409 2253 l 1,12,-1
3536 0 m 1,24,-1
 2492 0 l 1,25,-1
 2144 0 l 1,26,-1
 2144 349 l 1,27,-1
 2144 2253 l 1,28,-1
 2492 2253 l 1,29,-1
 2492 349 l 1,30,-1
 3536 349 l 1,31,-1
 3536 2253 l 1,32,-1
 3884 2253 l 1,33,-1
 3884 349 l 1,34,-1
 3884 0 l 1,35,-1
 3536 0 l 1,24,-1
EndSplineSet
Validated: 1
EndChar

StartChar: atilde
Encoding: 227 227 111
Width: 4363
GlyphClass: 1
Flags: W
LayerCount: 2
Fore
SplineSet
2983 -210 m 1,0,-1
 3332 -210 l 1,1,-1
 3332 -779 l 1,2,-1
 2983 -779 l 1,3,-1
 2983 -778 l 1,4,-1
 949 -778 l 1,5,-1
 949 -779 l 1,6,-1
 600 -779 l 1,7,-1
 600 -210 l 1,8,-1
 949 -210 l 1,9,-1
 949 -430 l 1,10,-1
 2983 -430 l 1,11,-1
 2983 -210 l 1,0,-1
1424 2282 m 1,12,-1
 1772 2282 l 1,13,-1
 1772 1933 l 1,14,-1
 1772 29 l 1,15,-1
 1424 29 l 1,16,-1
 1424 1933 l 1,17,-1
 381 1933 l 1,18,-1
 381 29 l 1,19,-1
 32 29 l 1,20,-1
 32 1933 l 1,21,-1
 32 2282 l 1,22,-1
 381 2282 l 1,23,-1
 1424 2282 l 1,12,-1
3899 2282 m 1,24,-1
 3899 1933 l 1,25,-1
 3899 378 l 1,26,-1
 3899 29 l 1,27,-1
 3551 29 l 1,28,-1
 2159 29 l 1,29,-1
 2159 378 l 1,30,-1
 3551 378 l 1,31,-1
 3551 1933 l 1,32,-1
 2159 1933 l 1,33,-1
 2159 2282 l 1,34,-1
 3551 2282 l 1,35,-1
 3899 2282 l 1,24,-1
EndSplineSet
Validated: 1
EndChar

StartChar: adieresis
Encoding: 228 228 112
Width: 2195
GlyphClass: 1
Flags: W
LayerCount: 2
Fore
SplineSet
870 872 m 0,0,1
 764 872 764 872 690 946 c 128,-1,2
 616 1020 616 1020 616 1126 c 0,3,4
 616 1233 616 1233 690 1307 c 0,5,6
 763 1380 763 1380 870 1380 c 0,7,8
 978 1380 978 1380 1051 1307 c 128,-1,9
 1124 1234 1124 1234 1124 1126 c 0,10,11
 1124 1019 1124 1019 1051 946 c 0,12,13
 977 872 977 872 870 872 c 0,0,1
1393 2253 m 1,14,-1
 1741 2253 l 1,15,-1
 1741 1905 l 1,16,-1
 1741 0 l 1,17,-1
 1393 0 l 1,18,-1
 1393 1905 l 1,19,-1
 348 1905 l 1,20,-1
 348 0 l 1,21,-1
 0 0 l 1,22,-1
 0 1905 l 1,23,-1
 0 2253 l 1,24,-1
 348 2253 l 1,25,-1
 1393 2253 l 1,14,-1
EndSplineSet
Validated: 1
EndChar

StartChar: ntilde
Encoding: 241 241 113
Width: 2195
GlyphClass: 1
Flags: W
LayerCount: 2
Fore
SplineSet
154 2253 m 1,0,-1
 1894 2253 l 1,1,-1
 1894 1905 l 1,2,-1
 1198 1905 l 1,3,-1
 1198 1300 l 1,4,-1
 850 1300 l 1,5,-1
 850 1905 l 1,6,-1
 154 1905 l 1,7,-1
 154 2253 l 1,0,-1
1198 348 m 1,8,-1
 1894 348 l 1,9,-1
 1894 0 l 1,10,-1
 154 0 l 1,11,-1
 154 348 l 1,12,-1
 850 348 l 1,13,-1
 850 952 l 1,14,-1
 1198 952 l 1,15,-1
 1198 348 l 1,8,-1
EndSplineSet
Validated: 1
EndChar

StartChar: ocircumflex
Encoding: 244 244 114
Width: 4366
GlyphClass: 1
Flags: W
LayerCount: 2
Fore
SplineSet
2996 -197 m 1,0,-1
 3346 -197 l 1,1,-1
 3346 -766 l 1,2,-1
 2996 -766 l 1,3,-1
 2996 -764 l 1,4,-1
 963 -764 l 1,5,-1
 963 -766 l 1,6,-1
 614 -766 l 1,7,-1
 614 -197 l 1,8,-1
 963 -197 l 1,9,-1
 963 -416 l 1,10,-1
 2996 -416 l 1,11,-1
 2996 -197 l 1,0,-1
3914 2296 m 1,12,-1
 3914 1948 l 1,13,-1
 3914 391 l 1,14,-1
 3914 43 l 1,15,-1
 3566 43 l 1,16,-1
 2173 43 l 1,17,-1
 2173 391 l 1,18,-1
 3566 391 l 1,19,-1
 3566 1948 l 1,20,-1
 2173 1948 l 1,21,-1
 2173 2296 l 1,22,-1
 3566 2296 l 1,23,-1
 3914 2296 l 1,12,-1
1786 2296 m 1,24,-1
 1786 1948 l 1,25,-1
 1786 391 l 1,26,-1
 1786 43 l 1,27,-1
 1438 43 l 1,28,-1
 395 43 l 1,29,-1
 45 43 l 1,30,-1
 45 391 l 1,31,-1
 45 1948 l 1,32,-1
 45 2296 l 1,33,-1
 395 2296 l 1,34,-1
 1438 2296 l 1,35,-1
 1786 2296 l 1,24,-1
395 391 m 1,36,-1
 1438 391 l 1,37,-1
 1438 1948 l 1,38,-1
 395 1948 l 1,39,-1
 395 391 l 1,36,-1
EndSplineSet
Validated: 1
EndChar

StartChar: otilde
Encoding: 245 245 115
Width: 4375
GlyphClass: 1
Flags: W
LayerCount: 2
Fore
SplineSet
1981 2373 m 256,0,1
 1876 2373 1876 2373 1802 2448 c 0,2,3
 1727 2523 1727 2523 1727 2628 c 256,4,5
 1727 2733 1727 2733 1802 2808 c 0,6,7
 1876 2882 1876 2882 1981 2882 c 0,8,9
 2085 2882 2085 2882 2161 2808 c 0,10,11
 2236 2733 2236 2733 2236 2628 c 256,12,13
 2236 2523 2236 2523 2161 2448 c 128,-1,14
 2086 2373 2086 2373 1981 2373 c 256,0,1
3000 -210 m 1,15,-1
 3349 -210 l 1,16,-1
 3349 -779 l 1,17,-1
 3000 -779 l 1,18,-1
 3000 -778 l 1,19,-1
 966 -778 l 1,20,-1
 966 -779 l 1,21,-1
 617 -779 l 1,22,-1
 617 -210 l 1,23,-1
 966 -210 l 1,24,-1
 966 -430 l 1,25,-1
 3000 -430 l 1,26,-1
 3000 -210 l 1,15,-1
3577 2282 m 1,27,-1
 3926 2282 l 1,28,-1
 3926 1933 l 1,29,-1
 3926 29 l 1,30,-1
 3577 29 l 1,31,-1
 3577 1933 l 1,32,-1
 2533 1933 l 1,33,-1
 2533 29 l 1,34,-1
 2185 29 l 1,35,-1
 2185 1933 l 1,36,-1
 2185 2282 l 1,37,-1
 2533 2282 l 1,38,-1
 3577 2282 l 1,27,-1
1789 2282 m 1,39,-1
 1789 1933 l 1,40,-1
 1789 378 l 1,41,-1
 1789 29 l 1,42,-1
 1441 29 l 1,43,-1
 398 29 l 1,44,-1
 49 29 l 1,45,-1
 49 378 l 1,46,-1
 49 1933 l 1,47,-1
 49 2282 l 1,48,-1
 398 2282 l 1,49,-1
 1441 2282 l 1,50,-1
 1789 2282 l 1,39,-1
398 378 m 1,51,-1
 1441 378 l 1,52,-1
 1441 1933 l 1,53,-1
 398 1933 l 1,54,-1
 398 378 l 1,51,-1
EndSplineSet
Validated: 1
EndChar

StartChar: ugrave
Encoding: 249 249 116
Width: 2199
GlyphClass: 1
Flags: W
LayerCount: 2
Fore
SplineSet
870 2373 m 256,0,1
 765 2373 765 2373 690.5 2448 c 128,-1,2
 616 2523 616 2523 616 2628 c 256,3,4
 616 2733 616 2733 690.5 2807.5 c 128,-1,5
 765 2882 765 2882 870 2882 c 256,6,7
 975 2882 975 2882 1050 2807.5 c 128,-1,8
 1125 2733 1125 2733 1125 2628 c 256,9,10
 1125 2523 1125 2523 1050 2448 c 128,-1,11
 975 2373 975 2373 870 2373 c 256,0,1
870 872 m 256,12,13
 765 872 765 872 690.5 946.5 c 128,-1,14
 616 1021 616 1021 616 1126 c 256,15,16
 616 1231 616 1231 690.5 1306 c 128,-1,17
 765 1381 765 1381 870 1381 c 256,18,19
 975 1381 975 1381 1050 1306 c 128,-1,20
 1125 1231 1125 1231 1125 1126 c 256,21,22
 1125 1021 1125 1021 1050 946.5 c 128,-1,23
 975 872 975 872 870 872 c 256,12,13
1392 0 m 1,24,-1
 349 0 l 1,25,-1
 0 0 l 1,26,-1
 0 349 l 1,27,-1
 0 2253 l 1,28,-1
 349 2253 l 1,29,-1
 349 349 l 1,30,-1
 1392 349 l 1,31,-1
 1392 2253 l 1,32,-1
 1741 2253 l 1,33,-1
 1741 349 l 1,34,-1
 1741 0 l 1,35,-1
 1392 0 l 1,24,-1
EndSplineSet
Validated: 1
EndChar

StartChar: uacute
Encoding: 250 250 117
Width: 2199
GlyphClass: 1
Flags: W
LayerCount: 2
Fore
SplineSet
870 2373 m 256,0,1
 765 2373 765 2373 690.5 2448 c 128,-1,2
 616 2523 616 2523 616 2628 c 256,3,4
 616 2733 616 2733 690.5 2807.5 c 128,-1,5
 765 2882 765 2882 870 2882 c 256,6,7
 975 2882 975 2882 1050 2807.5 c 128,-1,8
 1125 2733 1125 2733 1125 2628 c 256,9,10
 1125 2523 1125 2523 1050 2448 c 128,-1,11
 975 2373 975 2373 870 2373 c 256,0,1
1392 0 m 1,12,-1
 349 0 l 1,13,-1
 0 0 l 1,14,-1
 0 349 l 1,15,-1
 0 2253 l 1,16,-1
 349 2253 l 1,17,-1
 349 349 l 1,18,-1
 1392 349 l 1,19,-1
 1392 2253 l 1,20,-1
 1741 2253 l 1,21,-1
 1741 349 l 1,22,-1
 1741 0 l 1,23,-1
 1392 0 l 1,12,-1
EndSplineSet
Validated: 1
EndChar

StartChar: udieresis
Encoding: 252 252 118
Width: 2195
GlyphClass: 1
Flags: W
LayerCount: 2
Fore
SplineSet
870 872 m 0,0,1
 764 872 764 872 690 946 c 128,-1,2
 616 1020 616 1020 616 1126 c 0,3,4
 616 1233 616 1233 690 1307 c 0,5,6
 763 1380 763 1380 870 1380 c 0,7,8
 978 1380 978 1380 1051 1307 c 128,-1,9
 1124 1234 1124 1234 1124 1126 c 0,10,11
 1124 1019 1124 1019 1051 946 c 0,12,13
 977 872 977 872 870 872 c 0,0,1
1393 0 m 1,14,-1
 348 0 l 1,15,-1
 0 0 l 1,16,-1
 0 348 l 1,17,-1
 0 2253 l 1,18,-1
 348 2253 l 1,19,-1
 348 348 l 1,20,-1
 1393 348 l 1,21,-1
 1393 2253 l 1,22,-1
 1741 2253 l 1,23,-1
 1741 348 l 1,24,-1
 1741 0 l 1,25,-1
 1393 0 l 1,14,-1
EndSplineSet
Validated: 1
EndChar

StartChar: OE
Encoding: 338 338 119
Width: 4368
GlyphClass: 1
Flags: W
LayerCount: 2
Fore
SplineSet
1973 2388 m 256,0,1
 1868 2388 1868 2388 1794 2463 c 0,2,3
 1719 2538 1719 2538 1719 2643 c 256,4,5
 1719 2748 1719 2748 1794 2822 c 0,6,7
 1868 2897 1868 2897 1973 2897 c 128,-1,8
 2078 2897 2078 2897 2153 2822 c 0,9,10
 2228 2748 2228 2748 2228 2643 c 128,-1,11
 2228 2538 2228 2538 2153 2463 c 128,-1,12
 2078 2388 2078 2388 1973 2388 c 256,0,1
2991 -224 m 1,13,-1
 3340 -224 l 1,14,-1
 3340 -793 l 1,15,-1
 2991 -793 l 1,16,-1
 2991 -792 l 1,17,-1
 957 -792 l 1,18,-1
 957 -793 l 1,19,-1
 608 -793 l 1,20,-1
 608 -224 l 1,21,-1
 957 -224 l 1,22,-1
 957 -444 l 1,23,-1
 2991 -444 l 1,24,-1
 2991 -224 l 1,13,-1
3559 15 m 1,25,-1
 2515 15 l 1,26,-1
 2167 15 l 1,27,-1
 2167 364 l 1,28,-1
 2167 2268 l 1,29,-1
 2515 2268 l 1,30,-1
 2515 364 l 1,31,-1
 3559 364 l 1,32,-1
 3559 2268 l 1,33,-1
 3908 2268 l 1,34,-1
 3908 364 l 1,35,-1
 3908 15 l 1,36,-1
 3559 15 l 1,25,-1
1780 2268 m 1,37,-1
 1780 1919 l 1,38,-1
 1780 364 l 1,39,-1
 1780 15 l 1,40,-1
 1432 15 l 1,41,-1
 40 15 l 1,42,-1
 40 364 l 1,43,-1
 1432 364 l 1,44,-1
 1432 1919 l 1,45,-1
 40 1919 l 1,46,-1
 40 2268 l 1,47,-1
 1432 2268 l 1,48,-1
 1780 2268 l 1,37,-1
EndSplineSet
Validated: 1
EndChar

StartChar: quoteleft
Encoding: 8216 8216 120
Width: 4353
GlyphClass: 1
Flags: W
LayerCount: 2
Fore
SplineSet
1973 2388 m 256,0,1
 1868 2388 1868 2388 1794 2463 c 0,2,3
 1719 2538 1719 2538 1719 2643 c 256,4,5
 1719 2748 1719 2748 1794 2822 c 0,6,7
 1868 2897 1868 2897 1973 2897 c 128,-1,8
 2078 2897 2078 2897 2153 2822 c 0,9,10
 2228 2748 2228 2748 2228 2643 c 128,-1,11
 2228 2538 2228 2538 2153 2463 c 128,-1,12
 2078 2388 2078 2388 1973 2388 c 256,0,1
2991 -224 m 1,13,-1
 3340 -224 l 1,14,-1
 3340 -793 l 1,15,-1
 2991 -793 l 1,16,-1
 2991 -792 l 1,17,-1
 957 -792 l 1,18,-1
 957 -793 l 1,19,-1
 608 -793 l 1,20,-1
 608 -224 l 1,21,-1
 957 -224 l 1,22,-1
 957 -444 l 1,23,-1
 2991 -444 l 1,24,-1
 2991 -224 l 1,13,-1
3568 2268 m 1,25,-1
 3917 2268 l 1,26,-1
 3917 1919 l 1,27,-1
 3917 15 l 1,28,-1
 3568 15 l 1,29,-1
 3568 1919 l 1,30,-1
 2524 1919 l 1,31,-1
 2524 15 l 1,32,-1
 2176 15 l 1,33,-1
 2176 1919 l 1,34,-1
 2176 2268 l 1,35,-1
 2524 2268 l 1,36,-1
 3568 2268 l 1,25,-1
1780 2268 m 1,37,-1
 1780 1919 l 1,38,-1
 1780 364 l 1,39,-1
 1780 15 l 1,40,-1
 1432 15 l 1,41,-1
 389 15 l 1,42,-1
 40 15 l 1,43,-1
 40 364 l 1,44,-1
 40 1919 l 1,45,-1
 40 2268 l 1,46,-1
 389 2268 l 1,47,-1
 1432 2268 l 1,48,-1
 1780 2268 l 1,37,-1
389 364 m 1,49,-1
 1432 364 l 1,50,-1
 1432 1919 l 1,51,-1
 389 1919 l 1,52,-1
 389 364 l 1,49,-1
EndSplineSet
Validated: 1
EndChar

StartChar: quoteright
Encoding: 8217 8217 121
Width: 4353
GlyphClass: 1
Flags: W
LayerCount: 2
Fore
SplineSet
1973 2402 m 256,0,1
 1868 2402 1868 2402 1794 2477 c 0,2,3
 1719 2552 1719 2552 1719 2657 c 256,4,5
 1719 2762 1719 2762 1794 2836 c 0,6,7
 1868 2911 1868 2911 1973 2911 c 128,-1,8
 2078 2911 2078 2911 2153 2836 c 0,9,10
 2228 2762 2228 2762 2228 2657 c 128,-1,11
 2228 2552 2228 2552 2153 2477 c 128,-1,12
 2078 2402 2078 2402 1973 2402 c 256,0,1
2991 -210 m 1,13,-1
 3340 -210 l 1,14,-1
 3340 -779 l 1,15,-1
 2991 -779 l 1,16,-1
 2991 -778 l 1,17,-1
 957 -778 l 1,18,-1
 957 -779 l 1,19,-1
 608 -779 l 1,20,-1
 608 -210 l 1,21,-1
 957 -210 l 1,22,-1
 957 -430 l 1,23,-1
 2991 -430 l 1,24,-1
 2991 -210 l 1,13,-1
3907 2282 m 1,25,-1
 3907 1933 l 1,26,-1
 3907 378 l 1,27,-1
 3907 29 l 1,28,-1
 3559 29 l 1,29,-1
 2167 29 l 1,30,-1
 2167 378 l 1,31,-1
 3559 378 l 1,32,-1
 3559 1933 l 1,33,-1
 2167 1933 l 1,34,-1
 2167 2282 l 1,35,-1
 3559 2282 l 1,36,-1
 3907 2282 l 1,25,-1
1780 2282 m 1,37,-1
 1780 1933 l 1,38,-1
 1780 378 l 1,39,-1
 1780 29 l 1,40,-1
 1432 29 l 1,41,-1
 389 29 l 1,42,-1
 40 29 l 1,43,-1
 40 378 l 1,44,-1
 40 1933 l 1,45,-1
 40 2282 l 1,46,-1
 389 2282 l 1,47,-1
 1432 2282 l 1,48,-1
 1780 2282 l 1,37,-1
389 378 m 1,49,-1
 1432 378 l 1,50,-1
 1432 1933 l 1,51,-1
 389 1933 l 1,52,-1
 389 378 l 1,49,-1
EndSplineSet
Validated: 1
EndChar

StartChar: quotesinglbase
Encoding: 8218 8218 122
Width: 4392
GlyphClass: 1
Flags: W
LayerCount: 2
Fore
SplineSet
2968 -239 m 1,0,-1
 3317 -239 l 1,1,-1
 3317 -808 l 1,2,-1
 2968 -808 l 1,3,-1
 2968 -807 l 1,4,-1
 934 -807 l 1,5,-1
 934 -808 l 1,6,-1
 585 -808 l 1,7,-1
 585 -239 l 1,8,-1
 934 -239 l 1,9,-1
 934 -459 l 1,10,-1
 2968 -459 l 1,11,-1
 2968 -239 l 1,0,-1
1409 2253 m 1,12,-1
 1757 2253 l 1,13,-1
 1757 1904 l 1,14,-1
 1757 0 l 1,15,-1
 1409 0 l 1,16,-1
 1409 1904 l 1,17,-1
 366 1904 l 1,18,-1
 366 0 l 1,19,-1
 17 0 l 1,20,-1
 17 1904 l 1,21,-1
 17 2253 l 1,22,-1
 366 2253 l 1,23,-1
 1409 2253 l 1,12,-1
3536 0 m 1,24,-1
 2492 0 l 1,25,-1
 2144 0 l 1,26,-1
 2144 349 l 1,27,-1
 2144 2253 l 1,28,-1
 2492 2253 l 1,29,-1
 2492 349 l 1,30,-1
 3536 349 l 1,31,-1
 3536 2253 l 1,32,-1
 3884 2253 l 1,33,-1
 3884 349 l 1,34,-1
 3884 0 l 1,35,-1
 3536 0 l 1,24,-1
EndSplineSet
Validated: 1
EndChar

StartChar: quotedblbase
Encoding: 8222 8222 123
Width: 2199
GlyphClass: 1
Flags: W
LayerCount: 2
Fore
SplineSet
1392 2253 m 1,0,-1
 1741 2253 l 1,1,-1
 1741 1904 l 1,2,-1
 1741 0 l 1,3,-1
 1392 0 l 1,4,-1
 1392 1904 l 1,5,-1
 349 1904 l 1,6,-1
 349 0 l 1,7,-1
 0 0 l 1,8,-1
 0 1904 l 1,9,-1
 0 2253 l 1,10,-1
 349 2253 l 1,11,-1
 1392 2253 l 1,0,-1
870 872 m 256,12,13
 766 872 766 872 690 946 c 0,14,15
 616 1022 616 1022 616 1126 c 128,-1,16
 616 1230 616 1230 690 1306 c 0,17,18
 765 1381 765 1381 870 1381 c 256,19,20
 975 1381 975 1381 1050 1306 c 128,-1,21
 1125 1231 1125 1231 1125 1126 c 256,22,23
 1125 1021 1125 1021 1050 946 c 0,24,25
 974 872 974 872 870 872 c 256,12,13
870 2373 m 256,26,27
 765 2373 765 2373 690 2448 c 0,28,29
 616 2524 616 2524 616 2628 c 128,-1,30
 616 2732 616 2732 690 2808 c 0,31,32
 766 2882 766 2882 870 2882 c 128,-1,33
 974 2882 974 2882 1050 2808 c 0,34,35
 1125 2733 1125 2733 1125 2628 c 256,36,37
 1125 2523 1125 2523 1050 2448 c 128,-1,38
 975 2373 975 2373 870 2373 c 256,26,27
EndSplineSet
Validated: 1
EndChar

StartChar: daggerdbl
Encoding: 8225 8225 124
Width: 2199
GlyphClass: 1
Flags: W
LayerCount: 2
Fore
SplineSet
1392 2253 m 1,0,-1
 1741 2253 l 1,1,-1
 1741 1904 l 1,2,-1
 1741 0 l 1,3,-1
 1392 0 l 1,4,-1
 1392 1904 l 1,5,-1
 349 1904 l 1,6,-1
 349 0 l 1,7,-1
 0 0 l 1,8,-1
 0 1904 l 1,9,-1
 0 2253 l 1,10,-1
 349 2253 l 1,11,-1
 1392 2253 l 1,0,-1
870 872 m 256,12,13
 766 872 766 872 690 946 c 0,14,15
 616 1022 616 1022 616 1126 c 128,-1,16
 616 1230 616 1230 690 1306 c 0,17,18
 765 1381 765 1381 870 1381 c 256,19,20
 975 1381 975 1381 1050 1306 c 128,-1,21
 1125 1231 1125 1231 1125 1126 c 256,22,23
 1125 1021 1125 1021 1050 946 c 0,24,25
 974 872 974 872 870 872 c 256,12,13
870 2373 m 256,26,27
 765 2373 765 2373 690 2448 c 0,28,29
 616 2524 616 2524 616 2628 c 128,-1,30
 616 2732 616 2732 690 2808 c 0,31,32
 766 2882 766 2882 870 2882 c 128,-1,33
 974 2882 974 2882 1050 2808 c 0,34,35
 1125 2733 1125 2733 1125 2628 c 256,36,37
 1125 2523 1125 2523 1050 2448 c 128,-1,38
 975 2373 975 2373 870 2373 c 256,26,27
EndSplineSet
Validated: 1
EndChar

StartChar: egrave
Encoding: 232 232 125
Width: 2199
Flags: W
LayerCount: 2
Fore
SplineSet
870 2373 m 256,0,1
 765 2373 765 2373 690.5 2448 c 128,-1,2
 616 2523 616 2523 616 2628 c 256,3,4
 616 2733 616 2733 690.5 2807.5 c 128,-1,5
 765 2882 765 2882 870 2882 c 256,6,7
 975 2882 975 2882 1050 2807.5 c 128,-1,8
 1125 2733 1125 2733 1125 2628 c 256,9,10
 1125 2523 1125 2523 1050 2448 c 128,-1,11
 975 2373 975 2373 870 2373 c 256,0,1
870 872 m 256,12,13
 765 872 765 872 690.5 946.5 c 128,-1,14
 616 1021 616 1021 616 1126 c 256,15,16
 616 1231 616 1231 690.5 1306 c 128,-1,17
 765 1381 765 1381 870 1381 c 256,18,19
 975 1381 975 1381 1050 1306 c 128,-1,20
 1125 1231 1125 1231 1125 1126 c 256,21,22
 1125 1021 1125 1021 1050 946.5 c 128,-1,23
 975 872 975 872 870 872 c 256,12,13
0 0 m 1,24,-1
 0 349 l 1,25,-1
 0 1904 l 1,26,-1
 0 2253 l 1,27,-1
 349 2253 l 1,28,-1
 1741 2253 l 1,29,-1
 1741 1904 l 1,30,-1
 349 1904 l 1,31,-1
 349 349 l 1,32,-1
 1741 349 l 1,33,-1
 1741 0 l 1,34,-1
 349 0 l 1,35,-1
 0 0 l 1,24,-1
EndSplineSet
Validated: 1
EndChar

StartChar: eacute
Encoding: 233 233 126
Width: 2199
Flags: W
LayerCount: 2
Fore
SplineSet
870 2373 m 256,0,1
 765 2373 765 2373 690.5 2448 c 128,-1,2
 616 2523 616 2523 616 2628 c 256,3,4
 616 2733 616 2733 690.5 2807.5 c 128,-1,5
 765 2882 765 2882 870 2882 c 256,6,7
 975 2882 975 2882 1050 2807.5 c 128,-1,8
 1125 2733 1125 2733 1125 2628 c 256,9,10
 1125 2523 1125 2523 1050 2448 c 128,-1,11
 975 2373 975 2373 870 2373 c 256,0,1
0 0 m 1,12,-1
 0 349 l 1,13,-1
 0 1904 l 1,14,-1
 0 2253 l 1,15,-1
 349 2253 l 1,16,-1
 1741 2253 l 1,17,-1
 1741 1904 l 1,18,-1
 349 1904 l 1,19,-1
 349 349 l 1,20,-1
 1741 349 l 1,21,-1
 1741 0 l 1,22,-1
 349 0 l 1,23,-1
 0 0 l 1,12,-1
EndSplineSet
Validated: 1
EndChar

StartChar: edieresis
Encoding: 235 235 127
Width: 2195
Flags: W
LayerCount: 2
Fore
SplineSet
870 872 m 0,0,1
 764 872 764 872 690 946 c 128,-1,2
 616 1020 616 1020 616 1126 c 0,3,4
 616 1233 616 1233 690 1307 c 0,5,6
 763 1380 763 1380 870 1380 c 0,7,8
 978 1380 978 1380 1051 1307 c 128,-1,9
 1124 1234 1124 1234 1124 1126 c 0,10,11
 1124 1019 1124 1019 1051 946 c 0,12,13
 977 872 977 872 870 872 c 0,0,1
0 0 m 1,14,-1
 0 348 l 1,15,-1
 0 1905 l 1,16,-1
 0 2253 l 1,17,-1
 348 2253 l 1,18,-1
 1741 2253 l 1,19,-1
 1741 1905 l 1,20,-1
 348 1905 l 1,21,-1
 348 348 l 1,22,-1
 1741 348 l 1,23,-1
 1741 0 l 1,24,-1
 348 0 l 1,25,-1
 0 0 l 1,14,-1
EndSplineSet
Validated: 1
EndChar

StartChar: igrave
Encoding: 236 236 128
Width: 2199
Flags: W
LayerCount: 2
Fore
SplineSet
870 2373 m 260,0,1
 765 2373 765 2373 690.5 2448 c 132,-1,2
 616 2523 616 2523 616 2628 c 260,3,4
 616 2733 616 2733 690.5 2807.5 c 132,-1,5
 765 2882 765 2882 870 2882 c 260,6,7
 975 2882 975 2882 1050 2807.5 c 132,-1,8
 1125 2733 1125 2733 1125 2628 c 260,9,10
 1125 2523 1125 2523 1050 2448 c 132,-1,11
 975 2373 975 2373 870 2373 c 260,0,1
1741 2253 m 1,12,-1
 1741 1904 l 1,13,-1
 1741 349 l 1,14,-1
 1741 0 l 1,15,-1
 1392 0 l 1,16,-1
 0 0 l 1,17,-1
 0 349 l 1,18,-1
 1392 349 l 1,19,-1
 1392 1904 l 1,20,-1
 0 1904 l 1,21,-1
 0 2253 l 1,22,-1
 1392 2253 l 1,23,-1
 1741 2253 l 1,12,-1
870 872 m 256,24,25
 765 872 765 872 690.5 946.5 c 128,-1,26
 616 1021 616 1021 616 1126 c 256,27,28
 616 1231 616 1231 690.5 1306 c 128,-1,29
 765 1381 765 1381 870 1381 c 256,30,31
 975 1381 975 1381 1050 1306 c 128,-1,32
 1125 1231 1125 1231 1125 1126 c 256,33,34
 1125 1021 1125 1021 1050 946.5 c 128,-1,35
 975 872 975 872 870 872 c 256,24,25
EndSplineSet
Validated: 1
EndChar

StartChar: iacute
Encoding: 237 237 129
Width: 2199
Flags: W
LayerCount: 2
Fore
SplineSet
870 2373 m 256,0,1
 765 2373 765 2373 690.5 2448 c 128,-1,2
 616 2523 616 2523 616 2628 c 256,3,4
 616 2733 616 2733 690.5 2807.5 c 128,-1,5
 765 2882 765 2882 870 2882 c 256,6,7
 975 2882 975 2882 1050 2807.5 c 128,-1,8
 1125 2733 1125 2733 1125 2628 c 256,9,10
 1125 2523 1125 2523 1050 2448 c 128,-1,11
 975 2373 975 2373 870 2373 c 256,0,1
1741 2253 m 1,12,-1
 1741 1904 l 1,13,-1
 1741 349 l 1,14,-1
 1741 0 l 1,15,-1
 1392 0 l 1,16,-1
 0 0 l 1,17,-1
 0 349 l 1,18,-1
 1392 349 l 1,19,-1
 1392 1904 l 1,20,-1
 0 1904 l 1,21,-1
 0 2253 l 1,22,-1
 1392 2253 l 1,23,-1
 1741 2253 l 1,12,-1
EndSplineSet
Validated: 1
EndChar

StartChar: idieresis
Encoding: 239 239 130
Width: 2195
Flags: W
LayerCount: 2
Fore
SplineSet
1741 2253 m 1,0,-1
 1741 1905 l 1,1,-1
 1741 348 l 1,2,-1
 1741 0 l 1,3,-1
 1393 0 l 1,4,-1
 0 0 l 1,5,-1
 0 348 l 1,6,-1
 1393 348 l 1,7,-1
 1393 1905 l 1,8,-1
 0 1905 l 1,9,-1
 0 2253 l 1,10,-1
 1393 2253 l 1,11,-1
 1741 2253 l 1,0,-1
870 872 m 0,12,13
 764 872 764 872 690 946 c 128,-1,14
 616 1020 616 1020 616 1126 c 0,15,16
 616 1233 616 1233 690 1307 c 0,17,18
 763 1380 763 1380 870 1380 c 0,19,20
 978 1380 978 1380 1051 1307 c 128,-1,21
 1124 1234 1124 1234 1124 1126 c 0,22,23
 1124 1019 1124 1019 1051 946 c 0,24,25
 977 872 977 872 870 872 c 0,12,13
EndSplineSet
Validated: 1
EndChar

StartChar: ucircumflex
Encoding: 251 251 131
Width: 2048
Flags: W
LayerCount: 2
Fore
SplineSet
1198 1301 m 1,0,-1
 1894 1301 l 1,1,-1
 1894 952 l 1,2,-1
 1198 952 l 1,3,-1
 1198 0 l 1,4,-1
 154 0 l 1,5,-1
 154 348 l 1,6,-1
 850 348 l 1,7,-1
 850 1905 l 1,8,-1
 154 1905 l 1,9,-1
 154 2253 l 1,10,-1
 1198 2253 l 1,11,-1
 1198 1301 l 1,0,-1
EndSplineSet
Validated: 1
EndChar

StartChar: Ntilde
Encoding: 209 209 132
Width: 2195
Flags: W
LayerCount: 2
Fore
SplineSet
154 2253 m 1,0,-1
 1894 2253 l 1,1,-1
 1894 1905 l 1,2,-1
 1198 1905 l 1,3,-1
 1198 1300 l 1,4,-1
 850 1300 l 1,5,-1
 850 1905 l 1,6,-1
 154 1905 l 1,7,-1
 154 2253 l 1,0,-1
1198 348 m 1,8,-1
 1894 348 l 1,9,-1
 1894 0 l 1,10,-1
 154 0 l 1,11,-1
 154 348 l 1,12,-1
 850 348 l 1,13,-1
 850 952 l 1,14,-1
 1198 952 l 1,15,-1
 1198 348 l 1,8,-1
EndSplineSet
Validated: 1
EndChar

StartChar: icircumflex
Encoding: 238 238 133
Width: 4372
Flags: W
LayerCount: 2
Fore
SplineSet
2997 -210 m 1,0,-1
 3346 -210 l 1,1,-1
 3346 -779 l 1,2,-1
 2997 -779 l 1,3,-1
 2997 -778 l 1,4,-1
 963 -778 l 1,5,-1
 963 -779 l 1,6,-1
 614 -779 l 1,7,-1
 614 -210 l 1,8,-1
 963 -210 l 1,9,-1
 963 -430 l 1,10,-1
 2997 -430 l 1,11,-1
 2997 -210 l 1,0,-1
3565 29 m 1,12,-1
 2521 29 l 1,13,-1
 2173 29 l 1,14,-1
 2173 378 l 1,15,-1
 2173 2282 l 1,16,-1
 2521 2282 l 1,17,-1
 2521 378 l 1,18,-1
 3565 378 l 1,19,-1
 3565 2282 l 1,20,-1
 3914 2282 l 1,21,-1
 3914 378 l 1,22,-1
 3914 29 l 1,23,-1
 3565 29 l 1,12,-1
1786 2282 m 1,24,-1
 1786 1933 l 1,25,-1
 1786 378 l 1,26,-1
 1786 29 l 1,27,-1
 1438 29 l 1,28,-1
 46 29 l 1,29,-1
 46 378 l 1,30,-1
 1438 378 l 1,31,-1
 1438 1933 l 1,32,-1
 46 1933 l 1,33,-1
 46 2282 l 1,34,-1
 1438 2282 l 1,35,-1
 1786 2282 l 1,24,-1
EndSplineSet
Validated: 1
EndChar

StartChar: numbersign
Encoding: 35 35 134
Width: 4392
Flags: W
LayerCount: 2
Fore
SplineSet
1988 2402 m 256,0,1
 1883 2402 1883 2402 1808.5 2477 c 128,-1,2
 1734 2552 1734 2552 1734 2657 c 256,3,4
 1734 2762 1734 2762 1808.5 2836.5 c 128,-1,5
 1883 2911 1883 2911 1988 2911 c 256,6,7
 2093 2911 2093 2911 2168 2836.5 c 128,-1,8
 2243 2762 2243 2762 2243 2657 c 256,9,10
 2243 2552 2243 2552 2168 2477 c 128,-1,11
 2093 2402 2093 2402 1988 2402 c 256,0,1
2968 -239 m 1,12,-1
 3317 -239 l 1,13,-1
 3317 -808 l 1,14,-1
 2968 -808 l 1,15,-1
 2968 -807 l 1,16,-1
 934 -807 l 1,17,-1
 934 -808 l 1,18,-1
 585 -808 l 1,19,-1
 585 -239 l 1,20,-1
 934 -239 l 1,21,-1
 934 -459 l 1,22,-1
 2968 -459 l 1,23,-1
 2968 -239 l 1,12,-1
1409 2253 m 1,24,-1
 1757 2253 l 1,25,-1
 1757 1904 l 1,26,-1
 1757 0 l 1,27,-1
 1409 0 l 1,28,-1
 1409 1904 l 1,29,-1
 366 1904 l 1,30,-1
 366 0 l 1,31,-1
 17 0 l 1,32,-1
 17 1904 l 1,33,-1
 17 2253 l 1,34,-1
 366 2253 l 1,35,-1
 1409 2253 l 1,24,-1
3536 0 m 1,36,-1
 2492 0 l 1,37,-1
 2144 0 l 1,38,-1
 2144 349 l 1,39,-1
 2144 2253 l 1,40,-1
 2492 2253 l 1,41,-1
 2492 349 l 1,42,-1
 3536 349 l 1,43,-1
 3536 2253 l 1,44,-1
 3884 2253 l 1,45,-1
 3884 349 l 1,46,-1
 3884 0 l 1,47,-1
 3536 0 l 1,36,-1
EndSplineSet
Validated: 1
EndChar

StartChar: ecircumflex
Encoding: 234 234 135
Width: 2199
Flags: W
LayerCount: 2
Fore
SplineSet
870 2373 m 256,0,1
 765 2373 765 2373 690.5 2448 c 128,-1,2
 616 2523 616 2523 616 2628 c 256,3,4
 616 2733 616 2733 690.5 2807.5 c 128,-1,5
 765 2882 765 2882 870 2882 c 256,6,7
 975 2882 975 2882 1050 2807.5 c 128,-1,8
 1125 2733 1125 2733 1125 2628 c 256,9,10
 1125 2523 1125 2523 1050 2448 c 128,-1,11
 975 2373 975 2373 870 2373 c 256,0,1
870 872 m 256,12,13
 765 872 765 872 690.5 946.5 c 128,-1,14
 616 1021 616 1021 616 1126 c 256,15,16
 616 1231 616 1231 690.5 1306 c 128,-1,17
 765 1381 765 1381 870 1381 c 256,18,19
 975 1381 975 1381 1050 1306 c 128,-1,20
 1125 1231 1125 1231 1125 1126 c 256,21,22
 1125 1021 1125 1021 1050 946.5 c 128,-1,23
 975 872 975 872 870 872 c 256,12,13
0 0 m 1,24,-1
 0 349 l 1,25,-1
 0 1904 l 1,26,-1
 0 2253 l 1,27,-1
 349 2253 l 1,28,-1
 1741 2253 l 1,29,-1
 1741 1904 l 1,30,-1
 349 1904 l 1,31,-1
 349 349 l 1,32,-1
 1741 349 l 1,33,-1
 1741 0 l 1,34,-1
 349 0 l 1,35,-1
 0 0 l 1,24,-1
EndSplineSet
EndChar

StartChar: Ecircumflex
Encoding: 202 202 136
Width: 2199
Flags: W
LayerCount: 2
Fore
SplineSet
870 2373 m 256,0,1
 765 2373 765 2373 690.5 2448 c 128,-1,2
 616 2523 616 2523 616 2628 c 256,3,4
 616 2733 616 2733 690.5 2807.5 c 128,-1,5
 765 2882 765 2882 870 2882 c 256,6,7
 975 2882 975 2882 1050 2807.5 c 128,-1,8
 1125 2733 1125 2733 1125 2628 c 256,9,10
 1125 2523 1125 2523 1050 2448 c 128,-1,11
 975 2373 975 2373 870 2373 c 256,0,1
870 872 m 256,12,13
 765 872 765 872 690.5 946.5 c 128,-1,14
 616 1021 616 1021 616 1126 c 256,15,16
 616 1231 616 1231 690.5 1306 c 128,-1,17
 765 1381 765 1381 870 1381 c 256,18,19
 975 1381 975 1381 1050 1306 c 128,-1,20
 1125 1231 1125 1231 1125 1126 c 256,21,22
 1125 1021 1125 1021 1050 946.5 c 128,-1,23
 975 872 975 872 870 872 c 256,12,13
0 0 m 1,24,-1
 0 349 l 1,25,-1
 0 1904 l 1,26,-1
 0 2253 l 1,27,-1
 349 2253 l 1,28,-1
 1741 2253 l 1,29,-1
 1741 1904 l 1,30,-1
 349 1904 l 1,31,-1
 349 349 l 1,32,-1
 1741 349 l 1,33,-1
 1741 0 l 1,34,-1
 349 0 l 1,35,-1
 0 0 l 1,24,-1
EndSplineSet
EndChar
